<?xml version="1.0" standalone="no"?>
<!DOCTYPE svg PUBLIC "-//W3C//DTD SVG 1.1//EN" "http://www.w3.org/Graphics/SVG/1.1/DTD/svg11.dtd" >
<svg xmlns="http://www.w3.org/2000/svg" xmlns:xlink="http://www.w3.org/1999/xlink" version="1.1">
<metadata>
Created by FontForge 20161013 at Sat Dec 17 05:40:27 2011
 By ,,,
Copyright (c) 2011 TypeSETit, LLC (typesetit@att.net),with Reserved Font Name "Playball"
</metadata>
<defs>
<font id="Playball-Regular" horiz-adv-x="449" >
  <font-face 
    font-family="Playball"
    font-weight="400"
    font-stretch="normal"
    units-per-em="1000"
    panose-1="2 0 0 0 0 0 0 0 0 0"
    ascent="800"
    descent="-200"
    x-height="390"
    cap-height="698"
    bbox="-328 -300 1252 949"
    underline-thickness="50"
    underline-position="-150"
    unicode-range="U+0002-2122"
  />
<missing-glyph horiz-adv-x="0" 
 />
    <glyph glyph-name=".notdef" horiz-adv-x="0" 
 />
    <glyph glyph-name=".null" horiz-adv-x="0" 
 />
    <glyph glyph-name="nonmarkingreturn" horiz-adv-x="333" 
 />
    <glyph glyph-name="NULL" horiz-adv-x="0" 
 />
    <glyph glyph-name="NULL" horiz-adv-x="0" 
 />
    <glyph glyph-name="uni0002" horiz-adv-x="0" 
 />
    <glyph glyph-name="space" unicode=" " horiz-adv-x="300" 
 />
    <glyph glyph-name="exclam" unicode="!" horiz-adv-x="351" 
d="M332 654l58 -4q8 0 11 1q-55 -79 -135 -232.5t-91 -186.5l-41 -8q17 38 71.5 195t74.5 211q9 24 52 24zM159 49q-11 -2 -32.5 -23t-28.5 -34q-49 16 -49 41q0 18 21.5 35t49.5 17q41 0 41 -25q0 -3 -2 -11z" />
    <glyph glyph-name="quotedbl" unicode="&#x22;" horiz-adv-x="373" 
d="M358 690q0 -1 -20.5 -27.5t-61 -87.5t-49.5 -79q-3 -4 -20 -4t-17 3q5 7 78 194q5 12 47.5 12t42.5 -11zM220 691q0 -2 -20.5 -29t-61.5 -88t-49 -78q-1 -4 -18.5 -4t-17.5 3q5 8 78 194q5 12 47 12t42 -10z" />
    <glyph glyph-name="numbersign" unicode="#" horiz-adv-x="781" 
d="M173 34.5q-19 26.5 -18.5 33t0.5 7.5l45 116h-138q-1 0 -1 5t18.5 32.5t27.5 27.5h118l57 147h-149q-1 0 -1 5t18.5 32.5t28.5 27.5h128l53 137q0 1 1 1q6 0 24.5 -26.5t18.5 -38.5v-2l-27 -71h157l53 137q0 1 1 1q5 0 24 -26.5t19 -38.5v-2l-28 -71h145q1 0 1 -5
t-18.5 -32.5t-28.5 -27.5h-124l-57 -147h155q1 0 1 -5t-18.5 -32.5t-28.5 -27.5h-134l-70 -182l-1 -1q-6 0 -25 26.5t-18.5 33t0.5 7.5l45 116h-158l-70 -182l-1 -1q-6 0 -25 26.5zM452 256l56 147h-157l-56 -147h157z" />
    <glyph glyph-name="dollar" unicode="$" horiz-adv-x="455" 
d="M445 559q7 -11 7 -28.5t-10.5 -30.5t-30.5 -13h-6q0 37 -45 62l-56 -147l19 -13q85 -59 85 -126t-64.5 -123t-158.5 -56h-4l-55 -142q-1 -3 -22.5 -3t-21.5 8l55 142q-41 9 -66.5 33t-25.5 59.5t18.5 63t49.5 27.5q7 0 11 -1q-22 -16 -22 -40t15 -45.5t45 -31.5l74 193
q-74 66 -74 117.5t45.5 92.5t126.5 44l38 98q2 3 23 3t21 -7v-1l-37 -96q48 -9 66 -39zM269 431l50 131h-8q-30 0 -51.5 -18.5t-21.5 -51t31 -61.5zM288 306l-17 12l-65 -168q53 3 86 30.5t33 63t-37 62.5z" />
    <glyph glyph-name="percent" unicode="%" horiz-adv-x="670" 
d="M577 672q-31 -46 -85 -87l-332 -585q-2 -5 -29 -5t-27 4v1l328 575q-14 -4 -28 -4q-41 0 -66 25q1 -8 1 -26q0 -71 -44.5 -135.5t-116.5 -64.5q-46 0 -69 31.5t-23 80.5q0 73 45 135.5t115 62.5q45 0 72.5 -34t61 -34t67.5 21.5t52 51.5q10 17 46 17t36 -20q0 -2 -4 -10z
M586 146q-15 -61 -56.5 -106t-93.5 -45t-75 31.5t-23 81.5q0 73 45 135.5t115 62.5q48 0 71 -31.5t23 -79.5q0 -25 -6 -49zM246.5 448q22.5 25 34.5 60.5t12 65.5q0 62 -42 62q-34 0 -63 -48t-29 -102q0 -29 11 -46t32.5 -17t44 25zM499 74q23 25 34.5 60t11.5 65
q0 62 -42 62q-34 0 -63 -48t-29 -106t41 -58q24 0 47 25z" />
    <glyph glyph-name="ampersand" unicode="&#x26;" horiz-adv-x="789" 
d="M387 339l-44 7q-91 0 -155 -69.5t-64 -139.5q0 -55 36 -92t101 -37q107 0 171 57t64 119t-55 62q-17 0 -30 -21t-14 -37q-16 19 -16 43.5t27.5 49.5t71.5 39l151 46q101 30 114 61q3 -6 3 -19q0 -44 -30 -68t-70 -31q-143 -25 -190 -49q22 6 34 6q35 0 54.5 -22t19.5 -53
q0 -68 -57.5 -121.5t-130 -77.5t-123.5 -24t-88.5 7t-73.5 23t-58 46.5t-22 72.5q0 102 84 174t192 77q-36 18 -56.5 48t-20.5 64q0 61 44 107.5t103.5 67t117.5 20.5t96.5 -28.5t38.5 -68t-26 -65t-57 -25.5q-13 0 -19 5q45 25 45 72q0 59 -79 59t-134 -51t-55 -108
q0 -42 26 -64t58 -24h20q27 0 27 -11q0 -8 -10.5 -17.5t-20.5 -9.5z" />
    <glyph glyph-name="quotesingle" unicode="'" horiz-adv-x="143" 
d="M256 650q-28 -65 -75.5 -131.5t-72.5 -66.5q-7 0 -14 4q61 91 77 196q1 13 43 13t42 -13v-2z" />
    <glyph glyph-name="parenleft" unicode="(" horiz-adv-x="620" 
d="M612 706l-8 -27q-117 -29 -223.5 -116t-173 -207.5t-66.5 -242.5t95 -122q17 0 33 2l-7 -30q-42 -16 -99 -16t-85 43t-28 107q0 97 49.5 201t128.5 187.5t181.5 143.5t202.5 77z" />
    <glyph glyph-name="parenright" unicode=")" horiz-adv-x="574" 
d="M563 557q0 -169 -132 -335q-86 -108 -201 -181.5t-229 -92.5l8 27q180 46 321 214.5t141 349.5q0 124 -94 124q-19 0 -33 -2l7 30q42 16 99 16t85 -43.5t28 -106.5z" />
    <glyph glyph-name="asterisk" unicode="*" horiz-adv-x="652" 
d="M598 586l24 -74l-269 -99l-1 -3l210 -96l-69 -75l-165 143l-7 -3l-43 -240h-91l102 240l-4 3l-253 -143l-24 74l269 96l1 4l-210 98l69 74l166 -144l6 2l44 243h90l-102 -243l4 -2z" />
    <glyph glyph-name="plus" unicode="+" horiz-adv-x="722" 
d="M108 376l238 -8q55 137 77 206q3 12 41 26t48 14t10 -1v-1q-97 -214 -110 -244q226 2 288 5q1 0 1 -2q0 -9 -25 -36t-38 -27l-248 9q-28 -57 -56.5 -133t-36.5 -110q-3 -12 -41.5 -26t-48.5 -14t-10 1v1q51 94 129 282q-188 0 -234.5 -3.5t-46.5 -2.5q0 9 25 36.5
t38 27.5z" />
    <glyph glyph-name="comma" unicode="," horiz-adv-x="271" 
d="M246 64q-28 -65 -75.5 -131.5t-72.5 -66.5q-7 0 -14 4q61 91 77 196q1 13 43 13t42 -13v-2z" />
    <glyph glyph-name="hyphen" unicode="-" horiz-adv-x="490" 
d="M200 288h279q1 0 1 -5t-18.5 -32.5t-28.5 -27.5h-279q-1 0 -1 5t19 32.5t28 27.5z" />
    <glyph glyph-name="period" unicode="." horiz-adv-x="271" 
d="M222 49q-11 -2 -32.5 -23t-28.5 -34q-49 16 -49 41q0 18 21.5 35t49.5 17q41 0 41 -25q0 -3 -2 -11z" />
    <glyph glyph-name="slash" unicode="/" horiz-adv-x="455" 
d="M678 694l-556 -752q-2 -3 -27 -3t-25 7v1l556 752q3 3 27.5 3t24.5 -7v-1z" />
    <glyph glyph-name="zero" unicode="0" horiz-adv-x="610" 
d="M596 340q-42 -143 -146 -247.5t-239 -104.5q-93 0 -139.5 63t-46.5 163q0 130 71 258q77 138 194 193q65 30 136 30q95 0 142.5 -61.5t47.5 -159.5q0 -65 -20 -134zM392.5 108.5q62.5 72.5 95.5 174t33 184.5t-33 134t-100 51t-128.5 -69t-95.5 -168t-34 -189t32 -140
t100 -50t130.5 72.5z" />
    <glyph glyph-name="one" unicode="1" horiz-adv-x="349" 
d="M264 708h126q-54 -125 -142.5 -379.5t-102.5 -328.5h-121q32 72 190 492l52 140l-142 -132h-35z" />
    <glyph glyph-name="two" unicode="2" horiz-adv-x="568" 
d="M600 547q-21 -132 -214 -231q-67 -34 -105 -54t-95.5 -60t-72.5 -68h9q38 0 90.5 -17.5t121 -28.5t96.5 -11q99 0 100 73h27q-2 -70 -45 -118.5t-117 -48.5t-123 37q-11 11 -41.5 31t-41.5 25q-29 15 -48.5 15t-29.5 -16t-11 -35.5t-10.5 -35.5t-25.5 -16q-34 0 -34 38
q0 98 108 191q50 43 104 83q149 110 212 191q37 48 37 94t-25.5 72t-78 26t-102.5 -51.5t-50 -107.5q0 -16 4 -28q-23 -16 -43.5 -16t-33 15t-12.5 42q0 48 28 84.5t70 56.5q84 38 164 38q51 0 91 -11.5t69.5 -44.5t29.5 -85q0 -8 -2 -28z" />
    <glyph glyph-name="three" unicode="3" horiz-adv-x="600" 
d="M389 380q80 -13 122 -58.5t42 -108.5t-49 -117.5t-120.5 -81.5t-138.5 -27t-113.5 13.5t-79 47.5t-32.5 80t26 80.5t66 34.5q19 0 39 -10q-38 -55 -38 -106t38 -79.5t98 -28.5q77 0 131.5 54t54.5 124t-42.5 114.5t-106.5 44.5q-38 0 -78 -18q-6 -3 -14.5 -3t-15 8.5
t-6.5 22.5t14 25.5t47.5 11.5t70.5 -17q75 19 124.5 74.5t49.5 124.5q0 46 -28 75.5t-87 29.5t-102.5 -46.5t-43.5 -106.5q0 -19 6 -39q-13 -5 -28.5 -5t-30 18t-14.5 49q0 51 40 88q74 69 200 69q203 0 203 -139q0 -61 -54.5 -116.5t-149.5 -81.5z" />
    <glyph glyph-name="four" unicode="4" horiz-adv-x="687" 
d="M648 269q-50 -52 -149 -52q-17 0 -37 3q-46 -143 -65 -220h-119q24 54 90 233q-30 7 -79 21q-110 33 -151 33t-59 -14t-19 -31q-1 -45 -29 -45q-11 0 -19 11t-8 31q0 45 43 67l469 402h124q-73 -173 -154 -418q137 10 137 83q0 17 -9 29q11 8 27 8t29.5 -20.5t13.5 -41.5
q0 -41 -36 -79zM527 659l-402 -339q74 -4 133.5 -14.5t131.5 -13.5z" />
    <glyph glyph-name="five" unicode="5" horiz-adv-x="583" 
d="M122 415q0 21 128 293h190q27 0 66 2l40 3q27 0 37.5 -6t10.5 -30.5t-22 -74.5l-28 -72h-20l5 17q12 31 -1 57q-7 17 -44 30q-23 9 -124 9h-5h-80q-64 -137 -89 -197q63 20 117 20q112 0 181 -58t69 -144q0 -69 -30.5 -123.5t-80.5 -85.5q-102 -63 -221 -63
q-87 0 -147 40.5t-60 120.5q0 47 27.5 85t70.5 38q25 0 45 -14q-45 -49 -45 -114.5t37 -95.5t95 -30q76 0 131.5 64t55.5 150.5t-54 137t-133 50.5q-21 0 -60 -10t-50.5 -10t-11.5 11z" />
    <glyph glyph-name="six" unicode="6" horiz-adv-x="583" 
d="M589 588q0 -42 -21 -55t-37 -13q-29 0 -43 33q26 17 26 52t-22 52t-59 17q-78 0 -150 -78.5t-116 -203.5q78 64 193 64q87 0 136.5 -48.5t49.5 -127.5q0 -135 -93 -210.5t-212 -75.5t-164.5 52.5t-45.5 143t30 181t81 167t128 126t151.5 49.5t121 -31t46.5 -94zM310 413
q-88 -4 -133 -72t-45 -166q0 -64 29 -105.5t85 -41.5q83 0 138.5 73t55.5 160q0 67 -34 109.5t-96 42.5z" />
    <glyph glyph-name="seven" unicode="7" horiz-adv-x="539" 
d="M165 713l111 -5h253q15 0 15 -22t-18.5 -46t-75 -95t-90.5 -115q-101 -131 -140 -202t-39 -116q0 -20 10 -34.5t25.5 -14.5t25.5 3q-9 -40 -38.5 -58.5t-64.5 -18.5t-61 23.5t-26 67.5t29.5 99.5t73 105t95 101.5t94.5 94q103 97 103 140q0 4 -2 14h-212q-51 0 -81 -14.5
t-39.5 -35t-14 -41t-12 -35t-21.5 -14t-14 6.5q0 2 3 9t7.5 25t9.5 42q20 97 37 116.5t57 19.5z" />
    <glyph glyph-name="eight" unicode="8" horiz-adv-x="587" 
d="M440 394q100 -57 100 -156.5t-96.5 -174t-220.5 -74.5q-94 0 -156.5 48.5t-62.5 124t60 139t158 95.5q-73 49 -73 123q0 87 69 144t188 57q89 0 142 -39.5t53 -104.5q0 -122 -161 -182zM490.5 651q-41.5 33 -99 33t-106.5 -35t-49 -80t45.5 -86.5t104.5 -55.5
q142 54 146 145q0 46 -41.5 79zM284 343q-181 -72 -181 -190q0 -51 39.5 -84.5t110.5 -33.5t133 45t62 128q0 60 -52 92q-38 23 -112 43z" />
    <glyph glyph-name="nine" unicode="9" horiz-adv-x="614" 
d="M467 126q-111 -139 -287 -139q-160 0 -160 120q0 33 20 60t54 27q19 0 37 -9q-20 -29 -20 -77t24.5 -68.5t64 -20.5t78.5 22q70 39 109.5 100t80.5 169q-79 -57 -174.5 -57t-154.5 56.5t-59 145.5q0 122 80.5 190.5t199.5 68.5q236 0 236 -217q0 -92 -36.5 -196
t-92.5 -175zM458 631q-35 47 -105 46.5t-119.5 -66.5t-49.5 -141.5t39 -125t101 -49.5t100.5 31t53.5 77.5t15 113.5t-35 114z" />
    <glyph glyph-name="colon" unicode=":" horiz-adv-x="284" 
d="M222 49q-11 -2 -32.5 -23t-28.5 -34q-49 16 -49 41q0 18 21.5 35t49.5 17q41 0 41 -25q0 -3 -2 -11zM326 354q-11 -2 -32.5 -23t-28.5 -34q-49 16 -49 41q0 18 21.5 35t49.5 17q41 0 41 -25q0 -3 -2 -11z" />
    <glyph glyph-name="semicolon" unicode=";" horiz-adv-x="342" 
d="M353 337q-11 -2 -32.5 -23t-28.5 -34q-49 16 -49 41q0 18 21.5 35t49.5 17q41 0 41 -25q0 -3 -2 -11zM246 64q-28 -65 -75.5 -131.5t-72.5 -66.5q-7 0 -14 4q61 91 77 196q1 13 43 13t42 -13v-2z" />
    <glyph glyph-name="less" unicode="&#x3c;" horiz-adv-x="479" 
d="M457 577q1 1 3 1t2 -10.5t-15 -31.5q-28 -33 -141 -113t-182 -122q188 -134 238 -221q1 -2 1 -6q0 -14 -23 -33.5t-35 -19.5q-2 0 -3 1q-132 149 -251 235q-25 17 -25 28t30 28q207 117 401 264z" />
    <glyph glyph-name="equal" unicode="=" horiz-adv-x="531" 
d="M194 425h319q1 0 1 -5t-17.5 -29t-26.5 -24h-319q-1 0 -1 5t17 29t27 24zM140 238h319q1 0 1 -5t-17.5 -29t-26.5 -24h-319q-1 0 -1 5t17 29t27 24z" />
    <glyph glyph-name="greater" unicode="&#x3e;" horiz-adv-x="479" 
d="M492 342q25 -17 25 -28.5t-30 -28.5q-212 -120 -401 -263q-2 -2 -4 -2t-2 5q0 21 16 37q27 33 137.5 111t185.5 125q-69 48 -139.5 110.5t-98.5 110.5q-2 4 -2 6q0 14 23.5 33.5t35.5 19.5q2 0 3 -1q132 -149 251 -235z" />
    <glyph glyph-name="question" unicode="?" horiz-adv-x="551" 
d="M211 235l1 -14q0 -12 -12.5 -20.5t-25.5 -8.5q-23 0 -23 27q0 54 65 103l24 16q130 83 178 151q22 32 22 67t-23.5 60t-62.5 25q-28 0 -74 -25q-23 -13 -40 -39t-17 -51.5t7 -39.5q-14 -8 -32.5 -8t-35 18t-16.5 48q0 45 40 76q70 55 180 55q188 0 188 -119
q0 -69 -43.5 -104t-116.5 -65q-75 -33 -113 -56q-70 -45 -70 -96zM195 49q-11 -2 -32.5 -23t-28.5 -34q-49 16 -49 41q0 18 21.5 35t49.5 17q41 0 41 -25q0 -3 -2 -11z" />
    <glyph glyph-name="at" unicode="@" horiz-adv-x="917" 
d="M812 190q-30 -46 -87.5 -77t-108.5 -31t-80 27t-29 83q0 34 12 79q-94 -149 -167 -149q-29 0 -49.5 25t-20.5 67q0 109 68 205.5t166 96.5q33 0 51.5 -15.5t32.5 -56.5q17 34 31.5 46t47.5 12h56q-53 -42 -101 -159t-48 -171q0 -65 48 -65q71 0 121 88.5t50 183.5
q0 118 -71 200.5t-201 82.5q-104 0 -189.5 -59t-131.5 -150.5t-46 -179.5t25 -147t67 -92q84 -66 197 -66t223.5 56.5t152.5 125.5q3 6 7 6t4 -17q0 -44 -29.5 -80.5t-73.5 -58.5t-100 -38q-99 -27 -196 -27q-158 0 -256.5 76.5t-98.5 233.5q0 81 31 158.5t86.5 140
t140.5 100.5t184 38q157 0 251 -84t94 -209q0 -101 -63 -199zM574 393l22 43q-3 20 -20.5 31t-40.5 11q-72 0 -118 -74.5t-46 -148.5q0 -30 10 -47t25 -17q32 0 83.5 69t84.5 133z" />
    <glyph glyph-name="A" unicode="A" horiz-adv-x="750" 
d="M468 698h224q-25 -25 -87 -38t-140 -20.5t-102 -12.5q-107 -25 -107 -128q-31 32 -31 69q0 130 243 130zM743 698h72q-46 -44 -93.5 -240.5t-47.5 -303.5q0 -76 28 -105q12 -13 30 -13t38 13l6 -9q-14 -20 -50 -34.5t-71 -14.5q-52 0 -71 37t-22 99q0 51 13 132h-229
q-149 -158 -234 -259h-100q94 86 292 282q255 254 335 352q20 24 30 33.5t30.5 20t43.5 10.5zM640 557q-114 -107 -250 -248h192q18 99 58 248z" />
    <glyph glyph-name="B" unicode="B" horiz-adv-x="580" 
d="M614 548q-11 -107 -134 -160q-29 -12 -59 -18q156 -29 156 -148q0 -101 -107.5 -170t-266.5 -69q-78 0 -130 24.5t-52 81.5q0 70 74 244t137 297q10 20 15 28l-36 -5q-78 -11 -143.5 -37t-88.5 -65q-1 -3 -5 -3t-4 5.5t1 7.5q38 104 139 127q46 10 123 10h197
q91 0 137.5 -39t46.5 -98v-13zM510 574q-9 88 -139 94q-47 -61 -124 -229t-98 -242.5t-21 -113t22 -50t73 -11.5q95 0 166 51.5t71 153.5q0 50 -24.5 86t-71.5 42q-62 -17 -120 -17q-17 0 -17 7q0 23 31 31.5t59 8.5t55 -4q65 20 101.5 72t36.5 108v13z" />
    <glyph glyph-name="C" unicode="C" horiz-adv-x="680" 
d="M716 556q-16 -41 -59.5 -69t-90.5 -28q-22 0 -36 9.5t-14 24.5t12 32q11 -4 25 -4q39 0 72 27t33 65q0 58 -77 58q-102 0 -199 -70t-156.5 -181.5t-59.5 -226.5q0 -178 162 -178q101 0 214 78t150 169q19 -13 19 -35q0 -45 -64 -111.5t-161 -106t-198 -39.5
q-235 0 -235 219q0 83 37 173.5t100 168t157.5 127.5t186.5 50t141 -31.5t49 -80.5q0 -18 -8 -40z" />
    <glyph glyph-name="D" unicode="D" horiz-adv-x="710" 
d="M723 358q-19 -118 -89 -205t-170 -130t-217 -43q-217 0 -217 111q0 120 212 539q10 20 15 28q-79 -6 -161 -35t-107 -72q-1 -3 -5 -3t-4 5.5t1 7.5q38 104 139 127q46 10 123 10h205q142 0 211 -77t69 -196q0 -29 -5 -67zM618 350q11 46 11 88q0 97 -57 161
q-32 35 -87.5 51.5t-103.5 16.5q-48 -63 -114.5 -207.5t-107.5 -272.5q-21 -63 -21 -101.5t20 -50.5t71 -12q139 0 248 93.5t141 233.5z" />
    <glyph glyph-name="E" unicode="E" horiz-adv-x="570" 
d="M441 698l109 5q31 0 34.5 -12.5t3.5 -18.5q0 -35 -24.5 -88.5t-35 -53.5t-10.5 8l8 60q0 31 -25 49t-60 18t-52 -5t-27 -21q-73 -109 -133 -248h261l1 -1q0 -7 -14 -27.5t-23 -20.5h-247q-27 -66 -53 -148t-26 -108.5t16 -39t54 -12.5q292 0 346 114q2 3 7.5 3t5.5 -6
t-2 -16q-28 -87 -83 -110q-29 -12 -54.5 -15.5t-65.5 -3.5h-302q-31 0 -31 47q0 81 89 295h-55q-8 0 -8 5q0 10 19 27t31 17h34q92 221 133 269q-94 -12 -171.5 -40t-101.5 -69q-1 -3 -5 -3t-4 5.5t1 7.5q38 104 139 127q46 10 123 10h198z" />
    <glyph glyph-name="F" unicode="F" horiz-adv-x="380" 
d="M471 698l109 5q31 0 34.5 -12.5t3.5 -18.5q0 -35 -24.5 -88.5t-35 -53.5t-10.5 8l8 60q0 30 -28.5 48.5t-63.5 18.5t-51.5 -5t-27.5 -21q-47 -67 -124 -248h222l1 -1q0 -7 -14 -27.5t-23 -20.5h-207q-97 -236 -97 -320q0 -15 4 -22h-129q27 114 120 342h-55q-8 0 -8 5
q0 10 19 27t31 17h34q85 201 131 269q-226 -32 -271 -109q-1 -3 -5 -3t-4 5.5t1 7.5q38 104 139 127q46 10 123 10h198z" />
    <glyph glyph-name="G" unicode="G" horiz-adv-x="740" 
d="M792 313q-7 -36 -24 -53t-46 -22q-102 -276 -399 -276q-131 0 -201.5 61.5t-70.5 172.5q0 84 39 174.5t103.5 165.5t158.5 123.5t184 48.5t139 -31.5t49 -83t-49 -93t-109 -41.5q-22 0 -36 9.5t-14 24.5t12 32q11 -4 25 -4q39 0 72 27t33 65q0 58 -75.5 58t-150.5 -45.5
t-131 -116t-91.5 -160.5t-35.5 -176t44 -127t117 -41q105 0 198 64.5t109 165.5q-179 0 -215 -5q5 9 12.5 23t27 37t32.5 23h293z" />
    <glyph glyph-name="H" unicode="H" horiz-adv-x="680" 
d="M793 698h64q-50 -39 -125 -200q-135 -287 -135 -403q0 -59 37 -59q16 0 39 13h1q3 0 3 -6q0 -19 -50.5 -35.5t-81.5 -16.5q-61 0 -61 65q0 85 81 286h-283q-33 -77 -66 -174.5t-33 -145.5q0 -15 4 -22h-129q28 121 118 336q120 286 155 325q-85 -2 -172.5 -34.5
t-101.5 -77.5q-1 -3 -4 -3q-9 0 -9 13q0 2 2 10q19 55 55 85t70.5 37t85.5 7h226q-68 -52 -181 -307h283q94 220 133 277q7 11 26 20.5t49 9.5z" />
    <glyph glyph-name="I" unicode="I" horiz-adv-x="280" 
d="M237 698h226q-69 -53 -190 -328q-31 -70 -70.5 -183.5t-39.5 -165.5q0 -14 4 -21h-129q28 121 118 336q120 286 155 325q-85 -2 -172.5 -34.5t-101.5 -77.5q-1 -3 -4 -3q-9 0 -9 13q0 2 2 10q19 55 55 85t70.5 37t85.5 7z" />
    <glyph glyph-name="J" unicode="J" horiz-adv-x="390" 
d="M-39 -3l-1 -6q0 -28 14.5 -41.5t35.5 -13.5q121 0 294 428q3 8 13.5 34t37.5 80t66.5 108.5t69.5 65.5q-29 8 -103 8t-165.5 -32t-106.5 -79q-2 -3 -4 -3q-9 0 -9 13q0 2 2 10q19 55 55 85t70.5 37t85.5 7h47l225 -1q-59 -45 -82 -69t-48 -73.5t-47 -110.5t-37 -108
t-27.5 -84t-34 -92t-42 -97t-49.5 -88t-59 -76q-67 -69 -143 -69q-47 0 -75.5 26.5t-28.5 70.5q0 21 11 44t35 26z" />
    <glyph glyph-name="K" unicode="K" horiz-adv-x="640" 
d="M871 687q-64 0 -210.5 -92t-262.5 -197q33 -110 119 -232t150 -164q-15 -3 -48 -3l-85 3q-28 0 -75 64.5t-83.5 143.5t-44.5 125q-57 -57 -96 -113q-16 -23 -37.5 -91.5t-21.5 -96t4 -34.5h-129q32 123 112.5 334.5t144.5 302.5q0 1 17 24q-85 -2 -172.5 -34.5
t-101.5 -77.5q-1 -3 -4 -3q-8 0 -8 13q0 2 8 27t30.5 52t52.5 40q49 20 122 20h226q-50 -38 -118 -168t-111 -238q41 58 109.5 128.5t147 135t162 107.5t146 43t62.5 -14q0 -5 -5 -5z" />
    <glyph glyph-name="L" unicode="L" horiz-adv-x="570" 
d="M564 129q-28 -87 -82 -110q-29 -12 -54.5 -15.5t-65.5 -3.5h-303q-40 0 -40 56q0 143 239 574q18 29 19 31q-85 -2 -172.5 -34.5t-101.5 -77.5q-1 -3 -4 -3q-9 0 -9 13q0 2 8.5 27t31.5 52t52 40q49 20 121 20h227q-41 -31 -105.5 -147t-126 -254.5t-61.5 -197.5
q0 -65 71 -65q290 0 346 114q2 3 5 3q7 0 7 -10q0 -2 -2 -12z" />
    <glyph glyph-name="M" unicode="M" horiz-adv-x="840" 
d="M966 698h62q-45 -35 -136 -216q-135 -272 -135 -391q0 -55 35 -55q16 0 39 13h1q3 0 3 -5q0 -19 -50.5 -36t-82.5 -17q-67 0 -67 73q0 127 204 513q-40 -38 -54 -54q-96 -107 -286 -354q-40 -51 -55 -64t-39.5 -13t-56.5 15q25 32 25 194.5t-20 295.5q-36 -67 -130 -298
t-94 -290q0 -7 1 -9h-92q57 146 163 385t129 284q-91 0 -177.5 -36t-101.5 -84q-1 -3 -4 -3q-8 0 -8 13q0 2 8 27t30.5 52t52.5 40q49 20 121 20h127q30 0 47.5 -10t24.5 -47.5t13.5 -173t6.5 -190.5t-2 -75q143 179 370 449q40 47 128 47z" />
    <glyph glyph-name="N" unicode="N" horiz-adv-x="640" 
d="M858 697q-40 -26 -112.5 -168t-129 -296.5t-56.5 -214.5q0 -13 2 -18h-63q-3 58 -20.5 101.5t-26.5 65t-31 71.5t-39 90q-52 121 -59 206q-66 -147 -130 -311t-64 -214q0 -7 1 -9h-92q57 146 163 385t129 284q-91 0 -177.5 -36t-101.5 -84q-1 -3 -4 -3q-8 0 -8 13
q0 2 8 27t30.5 52t52.5 40q49 20 121 20h169q-14 -23 -14 -56q0 -74 57 -208q52 -125 61.5 -159.5t12 -45.5t3.5 -26t2 -19q13 32 223 514q2 5 18.5 5t43.5 -3t31 -3z" />
    <glyph glyph-name="O" unicode="O" horiz-adv-x="763" 
d="M778 303q-66 -150 -188.5 -242.5t-278.5 -92.5q-248 0 -248 219q0 99 41.5 194.5t109.5 167t161 115.5t190 44q127 0 190.5 -62.5t63.5 -156t-41 -186.5zM736 499q0 163 -146 163q-106 0 -202.5 -73t-152 -183t-55.5 -220q0 -79 35 -128t111.5 -49t153.5 46t132 117.5
t89.5 159t34.5 167.5z" />
    <glyph glyph-name="P" unicode="P" horiz-adv-x="490" 
d="M664 548q-6 -66 -42 -115.5t-92 -76.5q-107 -54 -248 -54q-25 0 -46 3q-83 -210 -83 -283q0 -15 4 -22h-129q28 121 118 336q120 286 155 325q-85 -2 -172.5 -34.5t-101.5 -77.5q-1 -3 -4 -3q-9 0 -9 13q0 2 2 10q19 55 55 85t70.5 37t85.5 7h253q91 0 137.5 -39
t46.5 -98v-13zM397.5 346q71.5 25 117.5 76.5t46 122.5q0 114 -138 123q-66 -82 -160 -298l-21 -49h12q72 0 143.5 25z" />
    <glyph glyph-name="Q" unicode="Q" horiz-adv-x="763" 
d="M798 303q-80 -181 -230 -270q8 -18 17.5 -60.5t17.5 -75.5t26.5 -59.5t42 -26.5t39.5 16q8 -16 8 -30q0 -33 -28.5 -55t-66.5 -22t-63.5 18.5t-37 53t-16.5 65.5t-8.5 76t-6.5 64q-76 -29 -161 -29q-248 0 -248 219q0 99 41.5 194.5t109.5 167t161 115.5t190 44
q128 0 191 -62.5t63 -156t-41 -186.5zM756 499q0 163 -140 163q-78 0 -155 -45t-133 -115t-90.5 -156.5t-34.5 -164.5t34.5 -124.5t104.5 -46.5t139 34q-10 27 -28 41t-37 14l-27 -4q-9 0 -9 6q0 13 19.5 19.5t40.5 6.5q56 0 98 -47q97 73 157.5 191.5t60.5 227.5z" />
    <glyph glyph-name="R" unicode="R" horiz-adv-x="610" 
d="M645 562q0 -59 -35 -104q-62 -82 -191 -106l-32 -6q50 -174 210 -344q-15 -3 -46 -3l-77 3q-40 0 -84.5 78.5t-70.5 160t-26 108.5q0 15 14 16q235 29 242 184q0 55 -32.5 85t-106.5 34q-78 -105 -173 -336q-94 -235 -94 -310q0 -15 4 -22h-129q28 121 118 336
q120 286 155 325q-85 -2 -172.5 -34.5t-101.5 -77.5q-1 -3 -4 -3q-9 0 -9 13q0 2 2 10q19 55 55 85t70.5 37t85.5 7h243q92 0 138.5 -38.5t46.5 -97.5z" />
    <glyph glyph-name="S" unicode="S" horiz-adv-x="523" 
d="M571 686q40 -30 40 -72.5t-28.5 -79t-79.5 -36.5t-51 43q0 4 2 16q27 0 47 21t20 46t-24 41t-58 16q-58 0 -96 -35t-38 -82q0 -25 18 -55t34.5 -47.5t54 -52t44.5 -41.5q76 -76 76 -165.5t-81 -156t-194 -66.5q-92 0 -148.5 30t-56.5 94q0 35 23 64t65.5 29t57.5 -30
q-35 -28 -35 -67.5t26.5 -61t69.5 -21.5q60 0 105.5 43t45.5 108.5t-86 156.5q-1 2 -35 37.5t-56.5 72.5t-22.5 88q0 87 68 140t160.5 53t132.5 -30z" />
    <glyph glyph-name="T" unicode="T" horiz-adv-x="400" 
d="M605 627l-141 6q-10 0 -66 -119.5t-97 -231.5t-41 -161.5t31.5 -49.5t79.5 65q5 6 10 6t5 -9t-13.5 -33t-35.5 -51.5t-57 -49t-72 -21.5q-55 0 -55 76q0 94 95 320q68 159 125 264h-13l-103 2q-86 0 -150 -22q-35 -12 -55.5 -35.5t-20.5 -56.5l8 -42q0 -10 -10 -10
q-13 0 -21 25.5t-8 44.5q0 47 22 80t60 50q72 32 159 32t197 -10.5t200 -10.5t117 28q3 -7 3 -14q0 -33 -42 -52.5t-111 -19.5z" />
    <glyph glyph-name="U" unicode="U" horiz-adv-x="710" 
d="M308 630q18 29 19 31q-85 -2 -172.5 -34.5t-101.5 -77.5q-1 -3 -4 -3q-9 0 -9 13q0 2 8.5 27t31.5 52t52 40q49 20 121 20h227q-46 -35 -113.5 -162t-106.5 -224q-55 -127 -55 -191.5t51 -64.5q43 0 111 61.5t134 150.5q130 177 183 275.5t82 126.5t64 28h62
q-47 -36 -137 -216q-135 -272 -135 -391q0 -55 35 -55q17 0 40 13h1q3 0 3 -6q0 -19 -50 -35t-81 -16q-64 0 -64 74q0 37 26 118.5t66 168.5q-149 -222 -222 -287q-81 -73 -150 -73q-115 0 -115 111q0 82 60.5 233.5t138.5 292.5z" />
    <glyph glyph-name="V" unicode="V" horiz-adv-x="450" 
d="M580 698h90q-33 -54 -191 -296t-180 -276.5t-32 -50t-14.5 -23t-14 -19.5t-16.5 -18q-19 -15 -40 -15h-64q16 31 19 70.5t4.5 83.5t4 95.5t2.5 105.5q0 265 -60 265q-21 0 -43 -35l-1 -1q-4 0 -4 6v1q12 37 55.5 78.5t74.5 41.5q49 0 65 -79.5t16 -231t-12 -289.5
q79 111 191.5 307t149.5 280z" />
    <glyph glyph-name="W" unicode="W" horiz-adv-x="1000" 
d="M1103 607v-16q0 -101 -61 -230t-150 -227q-48 -52 -112.5 -90t-130.5 -38q-124 0 -124 186q0 68 18 158q-81 -160 -155 -246q-94 -108 -197 -108q-47 0 -77.5 35t-30.5 112q0 101 71.5 249.5t170.5 236.5q18 17 45 27q-38 -8 -117 -16.5t-105 -14.5q-107 -24 -107 -128
q-31 32 -31 69q0 132 254 132h205q2 0 2 -3.5t-12.5 -17.5t-23.5 -21q-43 -26 -99 -108t-102 -194.5t-46 -201.5t63 -89q71 0 222 224q31 47 71 140.5t56 124t57.5 62t76 31.5t34.5 -10q-53 -72 -100 -195t-47 -235q0 -137 81 -142q52 0 102.5 50t85 115.5t64.5 147.5
q51 137 51 218t-53 81q-16 0 -36 -7q2 18 24.5 29.5t59 11.5t68.5 -25.5t35 -76.5z" />
    <glyph glyph-name="X" unicode="X" horiz-adv-x="560" 
d="M790 695q-171 -147 -344 -322q59 -222 102 -327q16 -38 23 -46h-141l-75 280q-132 -139 -247 -280h-108q202 185 343 327l-67 261q-11 43 -48 43t-76 -39q-1 -1 -3 -1q-7 0 -7 8.5t3 11.5q34 33 82.5 59.5t82.5 26.5t49 -15t20.5 -31.5t17.5 -71t37 -160.5
q128 131 241 260q16 17 63 17q10 0 27.5 -0.5t24.5 -0.5z" />
    <glyph glyph-name="Y" unicode="Y" horiz-adv-x="684" 
d="M756 698q-94 -65 -186 -169q-114 -129 -182 -278q-38 -85 -56 -171q-8 -37 -8 -55t4 -25h-129q4 17 39.5 124t35.5 154.5t-23 127.5t-61.5 146.5t-74.5 66.5q-45 0 -104 -78q-1 -1 -2 -1q-5 0 -5 8t1 9q35 71 74 104.5t99 33.5t87 -31t54.5 -124.5t54.5 -202.5
q21 29 112 159t131 182q16 21 82 21q11 0 30.5 -0.5t26.5 -0.5z" />
    <glyph glyph-name="Z" unicode="Z" horiz-adv-x="683" 
d="M800 698q-241 -210 -607 -570q28 -14 82 -25q136 -31 214 -31q125 0 125 72q0 19 -14 29q0 2 3.5 6t5.5 4q28 -1 49.5 -21t21.5 -48q0 -48 -49.5 -87.5t-121 -39.5t-140 25t-120.5 50.5t-74.5 25.5t-67.5 -49.5t-71 -49.5q-16 0 -26 11.5t-10 28.5q0 30 31 49
q126 78 328 270.5t289 279.5q-36 -16 -89 -28t-85.5 -12t-98.5 6.5t-90.5 6.5t-54 -25.5t-32.5 -59.5q0 -6 -10 -6q-7 0 -7 20q0 41 31.5 88.5t61 65t77 17.5t127.5 -18t132.5 -18t91.5 18.5t64 18.5t34 -4z" />
    <glyph glyph-name="bracketleft" unicode="[" horiz-adv-x="455" 
d="M280 712h243l-16 -48h-153l-235 -693h153l-16 -48h-243q255 754 267 789z" />
    <glyph glyph-name="backslash" unicode="\" horiz-adv-x="455" 
d="M170 699l254 -752q1 -3 -19 -5.5t-42 -2.5t-23 3l-254 752q-1 3 19 5.5t41.5 2.5t23.5 -3z" />
    <glyph glyph-name="bracketright" unicode="]" horiz-adv-x="455" 
d="M280 712h243l-267 -789h-243l16 48h153l235 693h-153z" />
    <glyph glyph-name="asciicircum" unicode="^" horiz-adv-x="531" 
d="M527 491v-1q0 -6 -14.5 -17.5t-24.5 -11.5q-20 0 -53.5 56.5t-56.5 107.5q-50 -50 -121 -108t-89 -58q-6 0 -6 1.5t1 2.5q118 96 216 202q13 15 19.5 15t16.5 -18q35 -75 112 -171z" />
    <glyph glyph-name="underscore" unicode="_" horiz-adv-x="758" 
d="M0 -100h758q1 0 1 -5t-19 -32.5t-28 -27.5h-758q-1 0 -1 5t18.5 32.5t28.5 27.5z" />
    <glyph glyph-name="grave" unicode="`" horiz-adv-x="531" 
d="M403 580q-43 22 -59.5 29t-16.5 9q0 6 20 17t28 11t12 -2q18 -13 53 -38l57 -43q23 -17 30 -20q0 -3 -10 -7.5t-12.5 -4.5t-30.5 14z" />
    <glyph glyph-name="a" unicode="a" horiz-adv-x="473" 
d="M445 400l50 -1h10q-33 -27 -81 -136.5t-48 -159.5q0 -26 18 -26q58 0 148 171q4 7 7 7q6 0 6 -18.5t-10 -35.5q-123 -207 -206 -207q-54 0 -54 83q0 62 21 122q-114 -202 -211 -202q-67 0 -67 92q0 70 30.5 142t87.5 122.5t125 50.5q32 0 60 -14.5t37 -46.5q11 23 34 40
t43 17zM362 334q-10 32 -47 32q-66 0 -128 -91.5t-62 -163.5q0 -31 24 -31q26 0 61 32.5t63 76.5q62 98 89 145z" />
    <glyph glyph-name="b" unicode="b" horiz-adv-x="443" 
d="M520 256q6 0 6 -18.5t-6 -28.5l-22 -37q-49 -81 -80 -108q-34 -31 -66 -31q-42 0 -56 39q-41 -41 -83 -61.5t-94 -20.5t-73.5 16.5t-21.5 55t12 87.5q31 132 104 310.5t115 189.5q13 3 47.5 3.5t41.5 1.5q-39 -29 -105.5 -170t-100.5 -271q108 191 204 191q68 0 68 -97.5
t-82 -198.5q1 -17 10 -27t23 -10t30.5 12.5t25 22t22.5 27.5t33 48.5t32.5 52.5t15.5 22zM298 319q-3 1 -15.5 1t-47 -26t-80.5 -99.5t-46 -121t29 -47.5q53 0 114 102.5t61 161.5q0 25 -15 29z" />
    <glyph glyph-name="c" unicode="c" horiz-adv-x="358" 
d="M434 256q6 0 6 -19t-16.5 -47t-26 -42.5t-32.5 -46.5t-40 -46t-43 -33q-44 -32 -114.5 -32t-102 35.5t-31.5 92.5q0 105 74.5 192.5t175.5 87.5q45 0 72 -23.5t27 -56t-18 -56.5t-41 -24q-45 0 -45 37q0 12 25 23q10 4 18 15t8 29q0 26 -28 26q-60 0 -119 -87t-59 -168.5
t71 -81.5q99 0 193 153q19 30 31.5 51t14.5 21z" />
    <glyph glyph-name="d" unicode="d" horiz-adv-x="476" 
d="M601 654q-33 -24 -86.5 -134.5t-94.5 -233t-41 -177.5q0 -32 17 -32t42.5 22t36.5 37t29.5 45.5t32 53t15.5 22.5q7 0 7 -19q-1 -35 -83 -146q-27 -36 -65 -67t-69 -31q-53 0 -53 79q0 58 29 149q-46 -91 -105 -158t-118 -67q-67 0 -67 92q0 70 30.5 142t87.5 122.5
t123.5 50.5t91.5 -44q28 55 57.5 127t39 93.5t14 31.5t11.5 19q11 14 26.5 17.5t50 4t41.5 1.5zM356 348q-12 18 -40 18q-45 0 -90.5 -45.5t-73 -105t-27.5 -104.5q0 -31 24 -31q81 0 207 268z" />
    <glyph glyph-name="e" unicode="e" horiz-adv-x="358" 
d="M436 260q6 0 6 -19.5t-16 -46.5t-31.5 -51t-41.5 -56t-51 -51q-63 -46 -126.5 -46t-102.5 32.5t-39 99.5q0 102 75 189t175 87q45 0 72 -23.5t27 -56.5q0 -56 -53 -90t-125 -34q-42 0 -62 11q-19 -51 -19 -90q0 -84 71 -84q42 0 86.5 32.5t76 73t71.5 116.5q4 7 7 7z
M330 339q0 29 -28 29q-39 0 -87 -48t-48 -78q0 -20 38 -20t79.5 37t45.5 80z" />
    <glyph glyph-name="f" unicode="f" horiz-adv-x="339" 
d="M133 313q-75 -143 -83 -143q-5 0 -5 16.5t6 28.5q49 84 74 160q4 13 9 17.5t17 4.5h8l88 -7q6 15 20.5 55t22.5 61t24 57t29 57t34 47.5t42 40.5q51 34 110 34q104 0 104 -77q0 -29 -16.5 -52t-43.5 -23q-13 0 -22.5 7t-9.5 16.5t15 31t15 37t-12.5 25.5t-29.5 10
q-30 0 -60 -32t-55 -84q-44 -91 -79 -194q-1 -5 -2 -7q-3 -8 -5 -14q158 0 180 14q-13 -32 -56 -42t-138 -12l-29 -84q-62 -178 -96 -244.5t-64.5 -114.5t-60.5 -79q-68 -72 -141 -72q-49 0 -72.5 23t-23.5 51.5t13 47.5t29 19t24 -7.5t8 -16t-10.5 -27t-10.5 -31.5t7 -22
t25 -9t42.5 17.5t47.5 50.5q86 127 227 497h-28q-51 0 -68 -32z" />
    <glyph glyph-name="g" unicode="g" horiz-adv-x="436" 
d="M472 400h40q-21 -14 -46 -61t-42.5 -92.5t-45.5 -124.5q-62 -178 -108 -236.5t-103.5 -90t-104.5 -31.5q-100 0 -100 63q0 25 15.5 47t41.5 22t35 -21q-10 -6 -15.5 -21t-5.5 -28.5t10.5 -22.5t27.5 -9q48 0 87 48.5t66 112.5q7 17 96 264q-118 -222 -222 -222
q-68 0 -68 92q0 70 30.5 142t87.5 122.5t125 50.5q31 0 59.5 -14t36.5 -46q15 32 35.5 44t67.5 12zM365 335q-10 32 -47 32q-66 0 -128.5 -92.5t-62.5 -164.5q0 -30 24 -30q26 0 61 32.5t63 76.5q90 139 90 146z" />
    <glyph glyph-name="h" unicode="h" horiz-adv-x="438" 
d="M510 201q-123 -207 -208 -207q-59 0 -59 68q0 79 63 225q14 37 14 51q0 20 -18 20q-12 0 -40.5 -14t-54.5 -41t-43.5 -62.5t-28 -61.5t-21.5 -63.5t-19.5 -61t-17.5 -54.5h-97q27 69 77.5 220.5t86.5 238t70.5 146t79 99.5t94 40t49.5 -47q0 -33 -27 -87
q-58 -114 -194 -264q54 39 85.5 51t60.5 12q57 0 57 -50q0 -20 -7 -37t-15.5 -39t-14 -36t-14.5 -38t-14 -41q-13 -42 -13 -67t17 -25q60 0 150 174q3 7 7.5 7t4.5 -18.5t-10 -37.5zM389 719q-35 0 -91.5 -111t-110.5 -255q137 161 187 264q28 63 28 82.5t-13 19.5z" />
    <glyph glyph-name="i" unicode="i" horiz-adv-x="217" 
d="M322 532h-4q-20 0 -38.5 -17t-26.5 -35q-26 10 -26 36t24 52.5t46 26.5t33 -10t11 -25.5t-19 -27.5zM186 400l50 -1h10q-16 -12 -42.5 -65t-39.5 -80t-29.5 -73t-16.5 -75t19 -29q13 0 36.5 17.5t38.5 37t33.5 49.5t32 52t15.5 22q6 0 6 -18.5t-10 -35.5
q-37 -62 -67.5 -103.5t-69.5 -72.5t-71 -31q-56 0 -56 78q0 121 83 268q35 60 78 60z" />
    <glyph glyph-name="j" unicode="j" horiz-adv-x="215" 
d="M206 390h40q-22 -13 -35 -38.5t-20 -39t-18 -42.5l-17 -44q-19 -50 -34 -94t-20.5 -59t-20 -50t-24.5 -54t-28 -51t-34 -50t-39.5 -40.5t-47.5 -34.5q-56 -29 -105 -29q-101 0 -101 62q0 25 15.5 47.5t42 22.5t35.5 -21q-10 -6 -15.5 -21t-5.5 -28.5t10.5 -23t28.5 -9.5
q84 1 151 161q24 57 62 172q72 213 97 240q24 24 83 24zM322 532h-4q-20 0 -38.5 -17t-26.5 -35q-26 10 -26 36t24 52.5t46 26.5t33 -10t11 -25.5t-19 -27.5z" />
    <glyph glyph-name="k" unicode="k" horiz-adv-x="411" 
d="M482 199q-35 -59 -71 -107q-77 -100 -152 -100q-41 0 -61.5 41t-20.5 91q0 100 30 100q47 0 87 21.5t40 56.5q0 28 -32 28q-69 0 -153 -150q-8 -15 -33.5 -69.5t-45 -82.5t-38.5 -28h-61q31 58 91.5 234.5t89.5 236.5q1 2 12.5 26t16 33t17.5 34t21 37t22 34.5t25 34.5
t26 28.5t28 24.5q34 20 62 20q55 0 55 -50q0 -70 -84.5 -185.5t-190.5 -218.5l-18 -50q48 62 109 108.5t112 46.5q29 0 45.5 -14t16.5 -38q0 -55 -48.5 -88.5t-111.5 -43.5q9 -104 29 -127q10 -11 25 -11t41 18t42.5 39.5t35 51.5t32 52t15.5 22q6 0 6 -19.5t-11 -36.5z
M384 717q-56 0 -196 -360q128 150 180 253q30 54 30 89q0 18 -14 18z" />
    <glyph glyph-name="l" unicode="l" horiz-adv-x="246" 
d="M415 610q-36 -73 -110 -165.5t-133 -148.5l-16 -46q-12 -35 -23 -85t-10 -71q0 -30 22 -30t52.5 25t44.5 43.5t32.5 48.5t32 52t15.5 22q6 0 6 -18.5t-10 -35.5q-55 -93 -89 -131q-69 -76 -142 -76q-56 0 -56 76q0 75 67 262q5 16 23 67t31 79.5t35 75.5t42.5 75t45.5 57
q49 58 106 58t57 -52q0 -40 -23 -82zM394 719h-7q-61 0 -195 -366q137 161 187 264q28 63 28 82.5t-13 19.5z" />
    <glyph glyph-name="m" unicode="m" horiz-adv-x="665" 
d="M737 201q-37 -62 -67.5 -103.5t-69.5 -72.5t-71 -31q-59 0 -59 68q0 79 63 225q14 37 14 51q0 20 -18 20q-11 0 -38 -13t-51.5 -39t-39.5 -48t-33 -66t-24 -62q-29 -90 -39 -130h-98q52 144 71.5 194t23.5 62l9 28q11 32 11 53t-19 21q-16 0 -43.5 -14t-53.5 -41
t-43.5 -62.5t-28 -61.5t-21.5 -63.5t-19.5 -61t-17.5 -54.5h-97q11 42 24 75l65 166q40 100 40 146q0 10 -2 13h42q34 0 44 -6.5t10 -17.5t-12 -51q88 80 176 80q53 0 53 -44q0 -19 -11 -47q91 91 187 91q52 0 52 -44q0 -20 -7 -38t-18 -46.5t-18 -47t-16 -45.5
q-19 -55 -19 -81.5t16.5 -26.5t41.5 22t37.5 38t31 45.5t31.5 51.5t15 22q6 0 6 -18.5t-10 -35.5z" />
    <glyph glyph-name="n" unicode="n" horiz-adv-x="436" 
d="M508 201q-37 -62 -67.5 -103.5t-69.5 -72.5t-71 -31q-59 0 -59 65t75 261q4 9 4 19q0 21 -26.5 21t-52 -16.5t-46.5 -47t-38 -62t-31.5 -72.5t-23 -68.5t-17 -59t-9.5 -34.5h-97q0 21 88 241q36 103 36 144q0 10 -3 15h42q35 0 45 -7t10 -19t-11 -49q84 80 169 80
q57 0 57 -52q0 -17 -5 -34t-25 -68q-44 -112 -44 -150q0 -24 18 -24q13 0 36.5 18t39 37.5t34 49t31.5 51.5t15 22q6 0 6 -18.5t-10 -35.5z" />
    <glyph glyph-name="o" unicode="o" 
d="M517 246q3 6 6 6q6 0 6 -15q0 -48 -38.5 -79.5t-72 -31.5t-57.5 19q-36 -71 -85.5 -112t-127.5 -41q-50 0 -81.5 30.5t-31.5 93t28.5 129t86 114.5t128.5 48q119 0 119 -126q0 -48 -21 -101q15 -21 43 -21q52 0 98 87zM350 308q-4 53 -48 53q-69 0 -135 -134
q-36 -74 -36 -134t52 -63q43 0 79.5 45.5t61.5 100.5q-34 29 -34 73q0 27 14.5 43t39.5 16h6z" />
    <glyph glyph-name="p" unicode="p" horiz-adv-x="394" 
d="M473 214q-60 -110 -130 -171t-166 -61t-108 49l-56 -175q-20 -59 -30.5 -76.5t-23.5 -22.5t-33 -5h-48q26 38 105 262.5t104.5 286.5t37.5 75q24 24 83 24h30q-29 -20 -79 -120q93 124 164 124q67 0 67 -92q0 -76 -48 -156t-113 -124h8q41 0 83.5 33t73.5 73
q17 22 48 74.5t33 52.5q8 0 8 -17t-10 -34zM278 319q-3 1 -9 1q-21 0 -46 -20q-41 -32 -87 -106t-46 -121t29 -47q52 0 113 103t61 161q0 25 -15 29z" />
    <glyph glyph-name="q" unicode="q" horiz-adv-x="463" 
d="M541 258q5 0 5 -18.5t-5.5 -29t-20 -34.5t-20 -33t-20.5 -30.5t-25 -31.5t-25 -23q-26 -25 -55.5 -25t-38.5 23q-9 -30 -30.5 -104t-34 -115.5t-43 -61.5t-95.5 -20q36 49 84 182q17 47 48 137.5t46 132.5q-116 -210 -216 -210q-67 0 -67 92q0 70 30.5 142t87.5 122.5
t125 50.5q30 0 57.5 -13t37.5 -43q14 29 35 40.5t66 11.5h30q-58 -36 -142 -284v-5q0 -40 27.5 -40t80.5 67q14 18 45 69t33 51zM354 321l7 16q-11 30 -46 30q-66 0 -128 -92t-62 -164q0 -31 24 -31q35 0 85.5 59t81 111t38.5 71z" />
    <glyph glyph-name="r" unicode="r" horiz-adv-x="336" 
d="M304 402l51 -1h10q-15 -11 -42.5 -65t-41 -81.5t-30 -74t-16.5 -75.5t20 -29q13 1 36.5 18.5t39 37t34 50t32 53t15.5 22.5q7 0 7 -18.5t-10 -35.5q-43 -71 -71 -109t-67.5 -69.5t-71.5 -31.5q-57 0 -57 84q0 57 22 129t65 139q-35 -28 -70 -28q-11 0 -23 5
q-71 -140 -76.5 -140t-5.5 16.5t12.5 46t27 56.5t15.5 30q-36 18 -36 58q0 20 12.5 36t34.5 16t36 -14q-2 -6 -2 -18q0 -27 19.5 -42.5t47.5 -15.5q8 0 12 1q35 50 71 50z" />
    <glyph glyph-name="s" unicode="s" horiz-adv-x="378" 
d="M451 203q-75 -125 -136 -174t-158 -49q-56 0 -94 21.5t-38 63.5q0 24 14 44t38.5 20t31.5 -18q-19 -19 -19 -44q0 -50 56 -50q33 0 57.5 23t24.5 50.5t-12 48.5t-29 37l-34 32q-41 39 -41 89.5t38.5 85t105.5 34.5q42 0 71 -15t29 -46.5t-19 -54.5t-51.5 -23t-32.5 30
q0 7 23 21t23 29t-12.5 22.5t-35.5 7.5t-44.5 -16t-21.5 -42t22 -49t48 -39t48 -44.5t22 -60t-14.5 -56.5t-34.5 -40q56 24 119 120q6 8 21 33q35 63 39 63q6 0 6 -18.5t-10 -35.5z" />
    <glyph glyph-name="t" unicode="t" horiz-adv-x="249" 
d="M346 573q-49 -34 -110 -174h101l1 -1q0 -5 -11 -17.5t-19 -12.5h-86q-79 -196 -79 -252q0 -38 24 -38q35 0 82 60q11 13 29 44q46 74 48 74q6 0 6 -16q-1 -38 -83 -148q-27 -36 -65 -67t-69 -31q-57 0 -57 80q0 67 32 154v1q-19 -35 -32.5 -52t-15.5 -17q-4 0 -4 12.5
t13.5 40.5t37 73t38.5 82h-67q-3 0 -3 4.5t7.5 15.5t11.5 11h76q72 173 146 173q43 0 48 1z" />
    <glyph glyph-name="u" unicode="u" 
d="M416 403l48 -1q15 0 19 1q-28 -19 -80.5 -132.5t-52.5 -163.5q0 -30 20 -30q13 0 35.5 17t38.5 37.5t34.5 50.5t32 52t15.5 22q6 0 6 -19t-11 -36q-124 -207 -207 -207q-56 0 -56 83q0 26 4 50q-94 -133 -179 -133q-25 0 -40.5 21t-15.5 62t29 135.5t71 155.5
q10 15 21.5 18.5t43.5 3.5h48q-25 -34 -54 -92q-66 -137 -66 -201q0 -38 27.5 -38t65.5 53t81.5 137.5t50.5 95.5q37 58 71 58z" />
    <glyph glyph-name="v" unicode="v" horiz-adv-x="404" 
d="M474 198q-41 -73 -103 -73q-52 0 -73 56q-87 -131 -122 -155q-49 -33 -96 -33q-24 0 -39.5 23.5t-15.5 64t25 121.5q49 159 113 186q31 13 84 13q4 0 4 -4t-6 -10q-38 -32 -82.5 -136.5t-44.5 -148t33 -43.5q28 0 65 55.5t62 122.5q-5 23 -5 58.5t17.5 71t48.5 35.5
t31 -46q0 -54 -33 -110q-9 -16 -12 -22q1 -31 15.5 -48t37.5 -17q36 0 67 45q12 18 21.5 32.5t10.5 14.5q4 0 4 -21t-7 -32z" />
    <glyph glyph-name="w" unicode="w" horiz-adv-x="677" 
d="M408 378l54 -1q17 0 20 1q-37 -22 -88 -168q-29 -77 -29 -117.5t30 -40.5q35 0 71.5 40.5t55 77.5t29.5 67q-5 25 -5 61t18.5 70t46.5 34q32 0 32 -45q0 -40 -10 -63t-20 -42.5t-14 -27.5q0 -29 15.5 -47t35.5 -18q47 0 95 87q3 5 5.5 5t2.5 -14q0 -54 -37 -83t-74 -29
q-54 0 -71 56l-3 10q-62 -108 -109.5 -153t-112.5 -45q-84 0 -84 95q0 17 4 39q-95 -133 -186 -133q-25 0 -41.5 22t-16.5 61.5t28 122.5q53 160 116 187q30 13 84 13q3 0 3 -4q0 3 -7 -7q-38 -54 -78 -143q-8 -20 -25 -70t-17 -83.5t25 -33.5q50 0 145 182q40 77 41 78
q37 59 71 59z" />
    <glyph glyph-name="x" unicode="x" horiz-adv-x="448" 
d="M127 305q-54 -107 -63 -116q-5 0 -5 20t4 28q16 29 31.5 74.5t27.5 66.5t30 21h52q12 -67 40 -155q25 25 69.5 76.5t60.5 69.5q9 10 30 10t31.5 -0.5t12.5 -0.5q-80 -71 -196 -192q34 -110 62 -137q14 -13 29 -13q40 0 105 81q10 12 28 42q48 78 50 78q5 0 5 -19t-11 -38
q-42 -72 -73 -109t-72.5 -69t-80.5 -32t-66 34t-47 104q-84 -84 -120 -129h-74q72 65 180 171q-24 66 -40 134z" />
    <glyph glyph-name="y" unicode="y" horiz-adv-x="425" 
d="M440 390h41q-31 -19 -63 -94q-26 -63 -44 -114.5t-22 -62.5t-18.5 -53.5t-23.5 -65.5q-25 -70 -58 -111t-82 -65.5t-99 -24.5t-85.5 19.5t-35.5 61.5q0 22 13.5 39.5t31 17.5t29.5 -8t17 -18q-18 -6 -18 -42q0 -19 13.5 -30.5t34.5 -11.5q81 0 136 145l57 152
q-47 -59 -81.5 -88.5t-54 -35.5t-46 -6t-42.5 21.5t-15.5 63t24 118.5t52 122t59 58t83.5 13q4 0 4 -4t-6 -10q-41 -36 -83.5 -129t-42.5 -157q0 -34 19 -34q36 0 92 72t86 144q4 10 11.5 29t10.5 26t9.5 19.5t11.5 17t13.5 11.5t17.5 9q29 6 54 6z" />
    <glyph glyph-name="z" unicode="z" horiz-adv-x="426" 
d="M498 201q-67 -112 -118.5 -166t-100.5 -54q-26 0 -84 30t-70.5 30t-16.5 -3q-41 -49 -61.5 -49t-20.5 20t12.5 32.5t19 18.5t20 16t37.5 30q73 59 172 154l35 33l-20 3q-71 11 -94 11q-53 0 -81 -26q-3 -3 -35 -51.5t-33 -48.5q-4 0 -4 21t8 35t24.5 48t23 45.5
t20.5 28.5t30 22.5t34 5.5t56 -6l12 -2q83 -15 104 -15q34 0 64 34q6 7 16.5 7t31.5 -7q-78 -72 -325 -312q46 -37 103 -37h4q45 0 89 24t76 65q13 17 45 69.5t34 52.5q5 0 5 -19t-12 -40z" />
    <glyph glyph-name="braceleft" unicode="{" horiz-adv-x="457" 
d="M293 -79l-52 -2q-100 0 -121.5 8.5t-36.5 17.5q-28 17 -28 58t28.5 123.5t28.5 118t-20 55t-40.5 24.5t-42.5 5l10 31q81 6 94.5 15t27.5 20q36 28 57 123q8 37 15 59.5t30.5 50t55 43.5t47.5 23q44 18 128 18h26l-9 -31q-87 0 -131 -33q-18 -14 -32 -38t-19.5 -43.5
t-14 -50.5t-15.5 -49q-20 -51 -78 -88t-119 -39q46 -1 85 -29.5t39 -68.5t-23 -112t-23 -109q0 -72 106 -72q7 0 20.5 0.5t18.5 0.5z" />
    <glyph glyph-name="bar" unicode="|" horiz-adv-x="457" 
d="M279 697h69l-106 -750h-70z" />
    <glyph glyph-name="braceright" unicode="}" horiz-adv-x="572" 
d="M216 710l52 2q100 0 121.5 -8.5t36.5 -17.5q28 -17 28 -58t-28.5 -123.5t-28.5 -118t20 -55t40.5 -24.5t42.5 -5l-10 -31q-81 -6 -94.5 -15t-27.5 -20q-36 -29 -57 -124q-8 -37 -15 -59t-30.5 -49.5t-56.5 -44t-47 -22.5t-48.5 -12.5t-58.5 -6.5t-32.5 0.5t-13.5 0.5
l10 31q86 0 129 33q19 14 33 38t19.5 43.5t14 50.5t15.5 49q19 51 77 88t120 39q-47 1 -85.5 29.5t-38.5 68t23 112.5t23 109q0 72 -106 72q-8 0 -21 -0.5t-18 -0.5z" />
    <glyph glyph-name="asciitilde" unicode="~" horiz-adv-x="514" 
d="M609 688q-56 -79 -111 -79q-33 0 -91 21.5t-90 21.5q-56 0 -75 -29q-3 -4 -7 -4q-9 0 -9 11t36.5 41t70 30t91.5 -21.5t85.5 -21.5t47.5 11t31.5 21.5t13.5 10.5q8 0 8 -9q0 -3 -1 -4z" />
    <glyph glyph-name="uni00A0" unicode="&#xa0;" horiz-adv-x="290" 
 />
    <glyph glyph-name="exclamdown" unicode="&#xa1;" horiz-adv-x="375" 
d="M374 490q-11 -2 -32.5 -23t-28.5 -34q-49 16 -49 41q0 18 21.5 35t49.5 17q41 0 41 -25q0 -3 -2 -11zM84 -112l-59 4q-2 0 -5.5 -0.5t-4.5 -0.5q55 79 135 232.5t91 186.5l41 8q-17 -38 -71.5 -195t-74.5 -211q-9 -24 -52 -24z" />
    <glyph glyph-name="cent" unicode="&#xa2;" horiz-adv-x="481" 
d="M458 476q-14 -40 -42 -40q-13 0 -22.5 9.5t-9.5 21t12.5 31t12.5 32.5q0 25 -31 30l-160 -415q43 0 97 17q33 11 97 69q20 19 24 19t4 -16t-15 -37q-40 -55 -104 -81.5t-125 -26.5l-56 -147q-1 -3 -22 -3t-21 7v1l56 146q-1 0 -1 0.5t-1 0.5q-52 11 -77 48t-25 104
t43 150t113 139.5t142 62.5l39 101q2 3 23 3t21 -7v-1l-38 -99q34 -6 53.5 -26t19.5 -46t-7 -47zM177 155l154 401q-78 -27 -136 -125t-58 -192q0 -63 40 -84z" />
    <glyph glyph-name="sterling" unicode="&#xa3;" horiz-adv-x="643" 
d="M568 170q21 -1 43 -16.5t22 -46.5q0 -43 -44.5 -79.5t-109 -36.5t-126 22.5t-108.5 45.5t-67.5 23t-39.5 -14t-32 -32q-32 -45 -62 -45q-24 0 -24 32t28.5 58t69.5 31q33 54 89 211h-92q-1 0 -1 5t11.5 23.5t19.5 18.5h79q82 227 171 290q41 29 82 29t60 -20t19 -46.5
t-7.5 -45.5t-14.5 -19q-2 0 -2 2q-8 52 -38 52q-64 0 -177 -242h118q1 0 1 -5.5t-11 -23.5t-19 -18h-111l-15 -34q-56 -127 -97 -177q23 -3 120 -23.5t154 -20.5q116 0 116 65q0 19 -13 28v1q0 2 3 5t5 3z" />
    <glyph glyph-name="currency" unicode="&#xa4;" horiz-adv-x="833" 
d="M565 489l146 104h1q3 0 3 -18.5t-5 -44.5t-13 -32l-90 -64q14 -31 14 -67q0 -64 -45 -119l68 -65q3 -3 3 -14t-4.5 -31t-10 -35t-7.5 -15h-1l-111 106q-57 -33 -122 -33t-115 37l-155 -110h-1q-3 0 -3 18.5t5 45t12 31.5l97 68q-18 32 -18 71q0 64 42 119l-59 57
q-3 3 -3 17t9.5 46t14.5 32h1l100 -96q57 35 126.5 35t120.5 -43zM318 245q33 -34 85.5 -34t99.5 43.5t47 101.5t-33.5 92.5t-88 34.5t-99 -45.5t-44.5 -102t33 -90.5z" />
    <glyph glyph-name="yen" unicode="&#xa5;" horiz-adv-x="655" 
d="M727 698q-187 -130 -318 -356h88q1 0 1 -5t-17.5 -29t-26.5 -24h-76q-25 -48 -45 -101h120q1 0 1 -5t-17.5 -29t-26.5 -24h-96q-19 -70 -19 -94t4 -31h-129q11 49 37 125h-116q-1 0 -1 5t17 29t27 24h93q18 54 18 91v10h-110q-1 0 -1 5t17 29t27 24h57q-21 92 -82 241
q-19 46 -49 46t-74 -37l-2 -1q-6 0 -6 7.5t2 9.5q33 35 82.5 61.5t85 26.5t48.5 -19q28 -41 105 -340q21 29 112 159t131 182q16 21 82 21q11 0 30.5 -0.5t26.5 -0.5z" />
    <glyph glyph-name="brokenbar" unicode="&#xa6;" horiz-adv-x="457" 
d="M401 691l-46 -317q0 -3 -23.5 -3t-21.5 8l46 317q0 3 23.5 3t21.5 -8zM340 259l-46 -317q0 -3 -23.5 -3t-21.5 8l46 317q0 3 23.5 3t21.5 -8z" />
    <glyph glyph-name="section" unicode="&#xa7;" horiz-adv-x="857" 
d="M806 686q40 -30 40 -72.5t-28.5 -79t-79.5 -36.5t-51 43q0 4 2 16q26 0 46 20.5t20 46t-23.5 41.5t-57.5 16q-58 0 -96 -35t-38 -82q0 -25 17.5 -54.5t35.5 -48t53 -51t45 -42.5q76 -77 76 -164t-74.5 -152t-180.5 -71q-8 -87 -88 -149t-180 -62t-156 30.5t-56 93.5
q0 35 23 64t65.5 29t57.5 -30q-35 -28 -35 -66.5t24.5 -60t64.5 -23.5q63 0 110.5 41.5t47.5 108.5t-86 158q-1 2 -35 37.5t-56.5 72.5t-22.5 88q0 87 68 140t167 53h21q-1 5 -1 17q0 87 68 140t160.5 53t132.5 -30zM552 333q-63 66 -78 92t-22 47q-9 -1 -33 -1
q-58 0 -96 -35t-38 -82q0 -25 18 -55t34.5 -47.5t54 -52t44.5 -41.5q65 -65 75 -141q55 7 94.5 48.5t39.5 99.5q0 64 -62 133q-28 32 -31 35z" />
    <glyph glyph-name="dieresis" unicode="&#xa8;" horiz-adv-x="580" 
d="M553 609q-20 -5 -41.5 -27.5t-32.5 -22.5q-21 0 -21 17t24.5 52t45.5 35q11 0 21 -15t10 -26.5t-6 -12.5zM366 609q-20 -5 -41.5 -27.5t-32.5 -22.5q-21 0 -21 17t24.5 52t45.5 35q11 0 21 -15t10 -26.5t-6 -12.5z" />
    <glyph glyph-name="copyright" unicode="&#xa9;" horiz-adv-x="674" 
d="M790 343q-19 -142 -141.5 -242t-270.5 -100t-242.5 86.5t-94.5 213.5q0 102 59 191t156 141t206 52q143 0 237 -86.5t94 -214.5q0 -20 -3 -41zM602 128q114 105 114 252q0 115 -75 192.5t-188 77.5q-133 0 -233.5 -102.5t-100.5 -240.5q0 -115 75 -192t192.5 -77
t215.5 90zM588 244q-95 -119 -228 -119q-71 0 -108.5 47t-37.5 118q0 107 76 200t185 93q48 0 76 -26t28 -62t-18.5 -62t-43.5 -26q-50 0 -50 43q0 9 17 16q31 12 31 47q0 17 -9.5 28t-28.5 11q-39 0 -80.5 -42t-69 -105t-27.5 -118.5t23.5 -88.5t69 -33t94 31t86.5 80
q4 5 8 5q12 0 12 -15.5t-5 -21.5z" />
    <glyph glyph-name="ordfeminine" unicode="&#xaa;" horiz-adv-x="473" 
d="M445 702l50 -1h10q-33 -27 -81 -136.5t-48 -159.5q0 -26 18 -26h1q13 0 35 17t38 37.5t34.5 50.5t32 52t15.5 22q6 0 6 -19t-11 -35q-36 -61 -67.5 -103.5t-69.5 -73.5t-69 -31q-54 0 -54 83q0 62 21 122q-114 -202 -211 -202q-67 0 -67 92q0 70 30.5 142t87.5 122.5
t125 50.5q32 0 60 -14.5t37 -46.5q11 23 34 40t43 17zM362 636q-10 32 -47 32q-66 0 -128 -91.5t-62 -163.5q0 -31 24 -31q26 0 61 32.5t63 76.5q62 98 89 145z" />
    <glyph glyph-name="guillemotleft" unicode="&#xab;" horiz-adv-x="671" 
d="M656 521l2 1q2 0 2 -4q0 -25 -91.5 -95t-179.5 -123q55 -38 112 -88t79 -88q1 -1 1 -8t-18.5 -23.5t-24.5 -16.5t-6 1q-105 119 -201 188q-21 15 -21 23t25 23q177 99 321 210zM414 521q1 1 2.5 1t1.5 -3q0 -25 -91 -95t-179 -124q150 -106 190 -176q1 -2 1 -9t-18.5 -23
t-24.5 -16t-6 1q-105 119 -201 188q-20 15 -20 23t25 23q165 93 320 210z" />
    <glyph glyph-name="logicalnot" unicode="&#xac;" horiz-adv-x="811" 
d="M711 327l-19 -102q-40 -207 -51 -207q-13 0 -16 13l21 292l-643 -9v45l666 10q11 0 26.5 -13t15.5 -29z" />
    <glyph glyph-name="uni00AD" unicode="&#xad;" horiz-adv-x="490" 
d="M200 288h279q1 0 1 -5t-18.5 -32.5t-28.5 -27.5h-279q-1 0 -1 5t19 32.5t28 27.5z" />
    <glyph glyph-name="registered" unicode="&#xae;" horiz-adv-x="831" 
d="M790 343q-19 -142 -141.5 -242t-270.5 -100t-242.5 86.5t-94.5 213.5q0 102 59 191t156 141t206 52q143 0 237 -86.5t94 -214.5q0 -20 -3 -41zM602 128q114 105 114 252q0 115 -75 192.5t-188 77.5q-133 0 -233.5 -102.5t-100.5 -240.5q0 -115 75 -192t192.5 -77
t215.5 90zM613 504q0 -58 -45.5 -94.5t-106.5 -47.5l-22 -4q35 -120 142 -232q-7 -2 -31 -2l-52 2q-39 0 -80.5 98.5t-41.5 135.5q0 10 9 11q68 6 115.5 38t47.5 91q0 34 -23.5 54.5t-70.5 20.5q-54 -73 -117 -228.5t-63 -206.5q0 -10 3 -15h-87q18 81 90 251
q65 162 103 220h105q62 0 93.5 -26t31.5 -66z" />
    <glyph glyph-name="macron" unicode="&#xaf;" horiz-adv-x="514" 
d="M315 685h241l1 -1q0 -6 -14 -23t-21 -17h-241q-1 0 -1 3t14 20.5t21 17.5z" />
    <glyph glyph-name="degree" unicode="&#xb0;" horiz-adv-x="833" 
d="M526 588q-16 -48 -60 -81.5t-97 -33.5t-76.5 23.5t-23.5 60.5q0 57 48 104.5t121 47.5q47 0 70.5 -23.5t23.5 -59.5q0 -18 -6 -38zM489 626q0 53 -54 53q-45 0 -78 -41t-33 -84q0 -53 52 -53q45 0 79 41.5t34 83.5z" />
    <glyph glyph-name="plusminus" unicode="&#xb1;" horiz-adv-x="722" 
d="M108 376l238 -8q55 137 77 206q3 12 41 26t48 14t10 -1v-1q-97 -214 -110 -244q226 2 288 5q1 0 1 -2q0 -9 -25 -36t-38 -27l-248 9q-28 -57 -56.5 -133t-36.5 -110q-3 -12 -41.5 -26t-48.5 -14t-10 1v1q51 94 129 282q-188 0 -234.5 -3.5t-46.5 -2.5q0 9 25 36.5
t38 27.5zM11 -39h483q1 0 1 -4.5t-18.5 -29t-28.5 -24.5h-483q-1 0 -1 4.5t18.5 29t28.5 24.5z" />
    <glyph glyph-name="twosuperior" unicode="&#xb2;" horiz-adv-x="491" 
d="M476 596q0 -63 -36.5 -104.5t-81 -65.5t-91.5 -46q-121 -55 -177 -127q157 -55 243 -55q75 0 75 61h19q0 -61 -29 -99.5t-92 -38.5q-38 0 -80.5 23t-76.5 46t-52 23t-27 -13.5t-10 -30.5q-3 -44 -32 -44q-25 0 -25 40q0 92 133 190q153 106 188 151q38 50 38 96
q0 29 -16.5 46.5t-55 17.5t-73 -37t-34.5 -81q0 -13 5 -28q-16 -10 -34 -10t-32 17t-14 44q0 47 38 79q66 57 167 57q163 0 163 -111z" />
    <glyph glyph-name="threesuperior" unicode="&#xb3;" horiz-adv-x="473" 
d="M427 677.5q48 -27.5 48 -87.5t-39.5 -99t-95.5 -59q48 -10 75.5 -43.5t27.5 -77.5q0 -93 -80 -147t-184 -54q-73 0 -124 31t-51 93q0 36 23.5 67t59.5 31q22 0 44 -15q-36 -49 -36 -88t26.5 -60t77 -21t91 43.5t40.5 98t-29.5 87t-76.5 32.5q-11 0 -31.5 -6t-29.5 -6
t-16.5 7t-7.5 18t12 19.5t36.5 8.5t49.5 -9q53 13 91 58.5t38 95.5q0 33 -19.5 53.5t-62 20.5t-74 -35t-31.5 -80q0 -20 7 -37q-14 -9 -32.5 -9t-32.5 17.5t-14 49.5t20.5 59t51.5 42q63 29 131.5 29t116.5 -27.5z" />
    <glyph glyph-name="acute" unicode="&#xb4;" horiz-adv-x="531" 
d="M480 610q-40 -17 -106 -50.5t-69 -33.5t-12.5 5t-9.5 7q9 5 65.5 46.5t74.5 54.5q4 2 12 2t27.5 -11t19.5 -17q0 -2 -2 -3z" />
    <glyph glyph-name="mu" unicode="&#xb5;" horiz-adv-x="453" 
d="M417 400l48 -1q15 0 19 1q-29 -19 -79.5 -131t-50.5 -162q0 -30 20 -30q13 0 35.5 17t38.5 37.5t34.5 50.5t32 52t15.5 22q6 0 6 -19t-11 -35q-36 -61 -67.5 -103.5t-69.5 -73.5t-70 -31q-56 0 -56 83q0 26 4 50q-95 -133 -186 -133q-7 0 -10 1q-104 -231 -278 -231
q-37 0 -63.5 15t-26.5 43.5t15.5 51t42 22.5t35.5 -21q-10 -6 -15.5 -21t-5.5 -28.5t10.5 -23t28.5 -9.5q84 0 151 161q27 66 74 210.5t86 203.5q9 14 24 18t48 4h45q-46 -65 -87 -180q-28 -84 -28 -117.5t25 -33.5q28 0 65 52.5t80 136t50 94.5q37 58 71 58z" />
    <glyph glyph-name="paragraph" unicode="&#xb6;" horiz-adv-x="558" 
d="M309 698h362q-35 -27 -83 -108.5t-94 -175.5t-92.5 -225.5t-46.5 -186.5t28 -65h-71q-41 0 -41 55t45 179.5t127.5 298.5t116.5 208h-53q-57 -63 -146 -240q-34 -70 -87 -204.5t-69 -194t-16 -107t28 -57.5h-57q-41 0 -41 53.5t30.5 143t103.5 266.5q-11 -1 -32 -1
q-88 0 -133 40.5t-45 101.5q0 83 73.5 151t192.5 68zM431 678h-67q-108 0 -164.5 -53.5t-56.5 -124.5q0 -55 33 -94t89 -39q129 282 166 311z" />
    <glyph glyph-name="periodcentered" unicode="&#xb7;" horiz-adv-x="271" 
d="M263 323q-5 -5 -17 -21q-32 -40 -37 -40q-15 0 -35 15.5t-20 28.5q0 22 30.5 41t64.5 19q24 0 24 -22q0 -14 -10 -21z" />
    <glyph glyph-name="cedilla" unicode="&#xb8;" horiz-adv-x="674" 
d="M215 -72q-1 -4 -9.5 -3t-14.5 1q-35 0 -67 -46t-32 -92t40 -46q37 0 73 38q2 2 4.5 2t2.5 -7q0 -24 -31.5 -40.5t-68 -16.5t-54.5 20.5t-18 53.5q0 65 42.5 108.5t105.5 43.5h4l20 46q1 4 11.5 4t10.5 -3z" />
    <glyph glyph-name="onesuperior" unicode="&#xb9;" horiz-adv-x="291" 
d="M194 706h108q-44 -103 -114 -306.5t-82 -265.5h-106q23 54 148 390l40 109l-111 -100h-48z" />
    <glyph glyph-name="ordmasculine" unicode="&#xba;" horiz-adv-x="436" 
d="M475 498q-65 -104 -102 -141.5t-68 -37.5t-49 21q-57 -52 -140 -52q-50 0 -82 30t-32 93t28.5 129.5t86 114.5t124.5 48t95 -34.5t28 -88.5q0 -92 -70 -197q8 -16 26 -16q32 0 83 67q17 22 45.5 70t30.5 48q6 0 6 -18.5t-10 -35.5zM287 464l7 15q24 56 24 110
q0 68 -49 68q-69 0 -135 -134q-36 -74 -36 -134t52 -63q43 0 87 54l-2 13q-2 12 -2 29t12 35t24 18t18 -11z" />
    <glyph glyph-name="guillemotright" unicode="&#xbb;" horiz-adv-x="693" 
d="M696 333q20 -15 20 -22.5t-25 -22.5q-168 -94 -320 -211q-1 -1 -3 -1t-2 4q0 26 90.5 94.5t180.5 123.5q-148 105 -190 177q-1 1 -1 8t18 23t24 16t7 -1q105 -119 201 -188zM454 333q20 -14 20 -22.5t-24 -22.5q-167 -93 -321 -211q-1 -1 -3 -1t-2 4q0 26 92.5 96
t178.5 122q-148 105 -190 177q-1 1 -1 8t18 23t24 16t7 -1q105 -119 201 -188z" />
    <glyph glyph-name="onequarter" unicode="&#xbc;" horiz-adv-x="993" 
d="M949 334q14 0 28 -14.5t14 -39.5q0 -42 -41.5 -75t-114.5 -33q-15 0 -22 1q-41 -128 -50 -173h-106q14 31 72 186q-19 5 -59 16q-84 25 -116.5 25t-45.5 -11t-14 -24q-1 -36 -24 -36q-12 0 -20.5 9t-8.5 25q0 40 37 61l373 321h108q-51 -117 -123 -332q97 8 97 60
q0 16 -10 23q12 11 26 11zM661 694l-556 -752q-2 -3 -27 -3t-25 7v1l556 752q3 3 27.5 3t24.5 -7v-1zM195 706h108q-44 -103 -114 -306.5t-82 -265.5h-106q23 54 147 390l41 109l-111 -100h-48zM850 512l-295 -249q51 -3 97.5 -11t96.5 -11z" />
    <glyph glyph-name="onehalf" unicode="&#xbd;" horiz-adv-x="950" 
d="M928 464q0 -63 -36.5 -104.5t-81 -65.5t-91.5 -46q-121 -55 -177 -127q157 -55 243 -55q75 0 75 61h19q0 -61 -29 -99.5t-92 -38.5q-38 0 -80.5 23t-76.5 46t-52 23t-27 -13.5t-10 -30.5q-3 -44 -32 -44q-25 0 -25 40q0 92 133 190q153 106 188 151q38 50 38 96
q0 29 -16.5 46.5t-55 17.5t-73 -37t-34.5 -81q0 -13 5 -28q-16 -10 -34 -10t-32 17t-14 44q0 47 38 79q66 57 167 57q163 0 163 -111zM622 694l-556 -752q-2 -3 -27 -3t-25 7v1l556 752q3 3 27.5 3t24.5 -7v-1zM194 742h108q-44 -103 -114 -306.5t-82 -265.5h-106
q23 54 148 390l40 109l-111 -100h-48z" />
    <glyph glyph-name="threequarters" unicode="&#xbe;" horiz-adv-x="1220" 
d="M1180 334q14 0 28 -14.5t14 -39.5q0 -42 -41.5 -75t-114.5 -33q-15 0 -22 1q-41 -128 -50 -173h-106q14 31 72 186q-19 5 -58 16q-85 25 -117.5 25t-45.5 -11t-13 -24q-2 -36 -25 -36q-12 0 -20.5 9t-8.5 25q0 40 37 61l373 321h108q-51 -117 -123 -332q97 8 97 60
q0 16 -10 23q12 11 26 11zM923 694l-556 -752q-2 -3 -27 -3t-25 7v1l556 752q3 3 27.5 3t24.5 -7v-1zM427 677.5q48 -27.5 48 -87.5t-39.5 -99t-95.5 -59q48 -10 75.5 -43.5t27.5 -77.5q0 -93 -80 -147t-184 -54q-73 0 -124 31t-51 93q0 36 23.5 67t59.5 31q22 0 44 -15
q-36 -49 -36 -88t26.5 -60t77 -21t91 43.5t40.5 98t-29.5 87t-76.5 32.5q-11 0 -31.5 -6t-29.5 -6t-16.5 7t-7.5 18t12 19.5t36.5 8.5t49.5 -9q53 13 91 58.5t38 95.5q0 33 -19.5 53.5t-62 20.5t-74 -35t-31.5 -80q0 -20 7 -37q-14 -9 -32.5 -9t-32.5 17.5t-14 49.5t20.5 59
t51.5 42q63 29 131.5 29t116.5 -27.5zM1081 512l-295 -249q51 -3 97.5 -11t96.5 -11z" />
    <glyph glyph-name="questiondown" unicode="&#xbf;" horiz-adv-x="508" 
d="M371 300l-2 15q0 12 12.5 20.5t25.5 8.5q23 0 23 -28q0 -54 -64 -102l-18 -12q-144 -92 -190 -164q-16 -27 -16 -49q0 -44 24 -69t62 -25q27 0 74 25q23 12 39.5 38t16.5 51.5t-7 40.5q14 8 32.5 8t35 -18t16.5 -48q0 -48 -43 -78q-73 -53 -177 -53q-188 0 -188 119
q0 70 51 109q42 31 94.5 53t77.5 34.5t56 31.5q65 40 65 92zM506 494q-11 -2 -32.5 -23t-28.5 -34q-49 16 -49 41q0 18 21.5 35t49.5 17q41 0 41 -25q0 -3 -2 -11z" />
    <glyph glyph-name="Agrave" unicode="&#xc0;" horiz-adv-x="813" 
d="M408 698h224q-25 -25 -87 -38t-140 -20.5t-102 -12.5q-107 -25 -107 -128q-31 32 -31 69q0 130 243 130zM683 698h72q-46 -44 -93.5 -240.5t-47.5 -303.5q0 -76 28 -105q12 -13 30 -13t38 13l6 -9q-14 -20 -50 -34.5t-71 -14.5q-52 0 -71 37t-22 99q0 51 13 132h-229
q-149 -158 -234 -259h-100q94 86 292 282q255 254 335 352q20 24 30 33.5t30.5 20t43.5 10.5zM580 557q-114 -107 -250 -248h192q18 99 58 248zM674 780q-43 22 -59.5 29t-16.5 9q0 6 20 17t28 11t12 -2q18 -13 52 -38l58 -43q23 -17 30 -20q0 -3 -10 -7.5t-12.5 -4.5
t-30.5 14z" />
    <glyph glyph-name="Aacute" unicode="&#xc1;" horiz-adv-x="813" 
d="M408 698h224q-25 -25 -87 -38t-140 -20.5t-102 -12.5q-107 -25 -107 -128q-31 32 -31 69q0 130 243 130zM683 698h72q-46 -44 -93.5 -240.5t-47.5 -303.5q0 -76 28 -105q12 -13 30 -13t38 13l6 -9q-14 -20 -50 -34.5t-71 -14.5q-52 0 -71 37t-22 99q0 51 13 132h-229
q-149 -158 -234 -259h-100q94 86 292 282q255 254 335 352q20 24 30 33.5t30.5 20t43.5 10.5zM580 557q-114 -107 -250 -248h192q18 99 58 248zM880 810q-40 -17 -106 -50.5t-69 -33.5t-12.5 5t-9.5 7q9 5 65.5 46.5t74.5 54.5q4 2 12 2t27.5 -11t19.5 -17q0 -2 -2 -3z" />
    <glyph glyph-name="Acircumflex" unicode="&#xc2;" horiz-adv-x="813" 
d="M408 698h224q-25 -25 -87 -38t-140 -20.5t-102 -12.5q-107 -25 -107 -128q-31 32 -31 69q0 130 243 130zM683 698h72q-46 -44 -93.5 -240.5t-47.5 -303.5q0 -76 28 -105q12 -13 30 -13t38 13l6 -9q-14 -20 -50 -34.5t-71 -14.5q-52 0 -71 37t-22 99q0 51 13 132h-229
q-149 -158 -234 -259h-100q94 86 292 282q255 254 335 352q20 24 30 33.5t30.5 20t43.5 10.5zM580 557q-114 -107 -250 -248h192q18 99 58 248zM876 766v-1q0 -3 -14.5 -11t-22.5 -8q-14 0 -38.5 36t-36.5 63q-33 -32 -73.5 -63.5t-56.5 -31.5t-16 3v1q96 78 146 130
q8 9 16.5 9t24 -22.5t37.5 -56t34 -48.5z" />
    <glyph glyph-name="Atilde" unicode="&#xc3;" horiz-adv-x="813" 
d="M408 698h224q-25 -25 -87 -38t-140 -20.5t-102 -12.5q-107 -25 -107 -128q-31 32 -31 69q0 130 243 130zM683 698h72q-46 -44 -93.5 -240.5t-47.5 -303.5q0 -76 28 -105q12 -13 30 -13t38 13l6 -9q-14 -20 -50 -34.5t-71 -14.5q-52 0 -71 37t-22 99q0 51 13 132h-229
q-149 -158 -234 -259h-100q94 86 292 282q255 254 335 352q20 24 30 33.5t30.5 20t43.5 10.5zM580 557q-114 -107 -250 -248h192q18 99 58 248zM940 883q-42 -72 -80 -72q-23 0 -65 18t-66.5 18t-42.5 -15t-19 -15q-11 0 -11 9.5t26 38.5t50.5 29t70.5 -18.5t66.5 -18.5
t32 10.5t18.5 20.5t13 10q9 0 9 -8q0 -3 -2 -7z" />
    <glyph glyph-name="Adieresis" unicode="&#xc4;" horiz-adv-x="813" 
d="M408 698h224q-25 -25 -87 -38t-140 -20.5t-102 -12.5q-107 -25 -107 -128q-31 32 -31 69q0 130 243 130zM683 698h72q-46 -44 -93.5 -240.5t-47.5 -303.5q0 -76 28 -105q12 -13 30 -13t38 13l6 -9q-14 -20 -50 -34.5t-71 -14.5q-52 0 -71 37t-22 99q0 51 13 132h-229
q-149 -158 -234 -259h-100q94 86 292 282q255 254 335 352q20 24 30 33.5t30.5 20t43.5 10.5zM580 557q-114 -107 -250 -248h192q18 99 58 248zM905 809q-20 -5 -41.5 -27.5t-32.5 -22.5q-21 0 -21 17t24.5 52t45.5 35q11 0 21 -15t10 -26.5t-6 -12.5zM718 809
q-20 -5 -41.5 -27.5t-32.5 -22.5q-21 0 -21 17t24.5 52t45.5 35q11 0 21 -15t10 -26.5t-6 -12.5z" />
    <glyph glyph-name="Aring" unicode="&#xc5;" horiz-adv-x="813" 
d="M408 698h224q-25 -25 -87 -38t-140 -20.5t-102 -12.5q-107 -25 -107 -128q-31 32 -31 69q0 130 243 130zM683 698h72q-46 -44 -93.5 -240.5t-47.5 -303.5q0 -76 28 -105q12 -13 30 -13t38 13l6 -9q-14 -20 -50 -34.5t-71 -14.5q-52 0 -71 37t-22 99q0 51 13 132h-229
q-149 -158 -234 -259h-100q94 86 292 282q255 254 335 352q20 24 30 33.5t30.5 20t43.5 10.5zM580 557q-114 -107 -250 -248h192q18 99 58 248z" />
    <glyph glyph-name="AE" unicode="&#xc6;" horiz-adv-x="998" 
d="M884 698l109 5q31 0 34.5 -12.5t3.5 -18.5q0 -35 -24.5 -88.5t-35 -53.5t-10.5 8l8 60q0 31 -25 49t-60 18t-52 -5t-27 -21q-73 -109 -133 -248h261l1 -1q0 -7 -14 -27.5t-23 -20.5h-247q-27 -66 -53 -148t-26 -108.5t16 -39t54 -12.5q292 0 346 114q1 3 7 3t6 -6t-2 -16
q-28 -87 -83 -110q-29 -12 -54.5 -15.5t-65.5 -3.5h-302q-31 0 -31 48q0 67 56 211h-232q-149 -158 -234 -259h-100q94 86 292 282q255 254 335 352q20 24 30 33.5t30.5 20t43.5 10.5h201zM704 668q-37 -23 -95.5 -75.5t-99.5 -94.5q-123 -126 -179 -189h207l35 82
q91 219 133 269q0 1 -0.5 3.5t-0.5 4.5zM408 698h224q-25 -25 -87 -38t-140 -20.5t-102 -12.5q-107 -25 -107 -128q-31 32 -31 69q0 130 243 130z" />
    <glyph glyph-name="Ccedilla" unicode="&#xc7;" horiz-adv-x="651" 
d="M666 556q-16 -41 -59.5 -69t-90.5 -28q-22 0 -36 9.5t-14 24.5t12 32q11 -4 25 -4q39 0 72 27t33 65q0 58 -77 58q-102 0 -199 -70t-156.5 -181.5t-59.5 -226.5q0 -178 162 -178q101 0 214 78t150 169q19 -13 19 -35q0 -45 -64 -111.5t-161 -106t-198 -39.5
q-235 0 -235 219q0 83 37 173.5t100 168t157.5 127.5t186.5 50t141 -31.5t49 -80.5q0 -18 -8 -40zM213 -90q-1 -4 -9.5 -3t-14.5 1q-35 0 -67 -46t-32 -92t40 -46q37 0 73 38q2 2 4.5 2t2.5 -7q0 -24 -31.5 -40.5t-68 -16.5t-54.5 20.5t-18 53.5q0 65 42.5 108.5t105.5 43.5
h4l20 46q1 4 11.5 4t10.5 -3z" />
    <glyph glyph-name="Egrave" unicode="&#xc8;" horiz-adv-x="587" 
d="M471 698l109 5q31 0 34.5 -12.5t3.5 -18.5q0 -35 -24.5 -88.5t-35 -53.5t-10.5 8l8 60q0 31 -25 49t-60 18t-52 -5t-27 -21q-73 -109 -133 -248h261l1 -1q0 -7 -14 -27.5t-23 -20.5h-247q-27 -66 -53 -148t-26 -108.5t16 -39t54 -12.5q292 0 346 114q2 3 7.5 3t5.5 -6
t-2 -16q-28 -87 -83 -110q-29 -12 -54.5 -15.5t-65.5 -3.5h-302q-31 0 -31 47q0 81 89 295h-55q-8 0 -8 5q0 10 19 27t31 17h34q92 221 133 269q-94 -12 -171.5 -40t-101.5 -69q-1 -3 -5 -3t-4 5.5t1 7.5q38 104 139 127q46 10 123 10h198zM389 780q-43 22 -59.5 29t-16.5 9
q0 6 20 17t28 11t12 -2q18 -13 53 -38l57 -43q23 -17 30 -20q0 -3 -10 -7.5t-12.5 -4.5t-30.5 14z" />
    <glyph glyph-name="Eacute" unicode="&#xc9;" horiz-adv-x="587" 
d="M471 698l109 5q31 0 34.5 -12.5t3.5 -18.5q0 -35 -24.5 -88.5t-35 -53.5t-10.5 8l8 60q0 31 -25 49t-60 18t-52 -5t-27 -21q-73 -109 -133 -248h261l1 -1q0 -7 -14 -27.5t-23 -20.5h-247q-27 -66 -53 -148t-26 -108.5t16 -39t54 -12.5q292 0 346 114q2 3 7.5 3t5.5 -6
t-2 -16q-28 -87 -83 -110q-29 -12 -54.5 -15.5t-65.5 -3.5h-302q-31 0 -31 47q0 81 89 295h-55q-8 0 -8 5q0 10 19 27t31 17h34q92 221 133 269q-94 -12 -171.5 -40t-101.5 -69q-1 -3 -5 -3t-4 5.5t1 7.5q38 104 139 127q46 10 123 10h198zM562 810q-40 -17 -106 -50.5
t-69 -33.5t-12.5 5t-9.5 7q9 5 65.5 46.5t74.5 54.5q4 2 12 2t27.5 -11t19.5 -17q0 -2 -2 -3z" />
    <glyph glyph-name="Ecircumflex" unicode="&#xca;" horiz-adv-x="587" 
d="M471 698l109 5q31 0 34.5 -12.5t3.5 -18.5q0 -35 -24.5 -88.5t-35 -53.5t-10.5 8l8 60q0 31 -25 49t-60 18t-52 -5t-27 -21q-73 -109 -133 -248h261l1 -1q0 -7 -14 -27.5t-23 -20.5h-247q-27 -66 -53 -148t-26 -108.5t16 -39t54 -12.5q292 0 346 114q2 3 7.5 3t5.5 -6
t-2 -16q-28 -87 -83 -110q-29 -12 -54.5 -15.5t-65.5 -3.5h-302q-31 0 -31 47q0 81 89 295h-55q-8 0 -8 5q0 10 19 27t31 17h34q92 221 133 269q-94 -12 -171.5 -40t-101.5 -69q-1 -3 -5 -3t-4 5.5t1 7.5q38 104 139 127q46 10 123 10h198zM583 758v-1q0 -3 -14.5 -11
t-22.5 -8q-14 0 -38.5 36t-36.5 63q-33 -32 -73.5 -63.5t-56.5 -31.5t-16 3v1q96 78 146 130q8 9 16.5 9t24 -22.5t37.5 -56t34 -48.5z" />
    <glyph glyph-name="Edieresis" unicode="&#xcb;" horiz-adv-x="587" 
d="M471 698l109 5q31 0 34.5 -12.5t3.5 -18.5q0 -35 -24.5 -88.5t-35 -53.5t-10.5 8l8 60q0 31 -25 49t-60 18t-52 -5t-27 -21q-73 -109 -133 -248h261l1 -1q0 -7 -14 -27.5t-23 -20.5h-247q-27 -66 -53 -148t-26 -108.5t16 -39t54 -12.5q292 0 346 114q2 3 7.5 3t5.5 -6
t-2 -16q-28 -87 -83 -110q-29 -12 -54.5 -15.5t-65.5 -3.5h-302q-31 0 -31 47q0 81 89 295h-55q-8 0 -8 5q0 10 19 27t31 17h34q92 221 133 269q-94 -12 -171.5 -40t-101.5 -69q-1 -3 -5 -3t-4 5.5t1 7.5q38 104 139 127q46 10 123 10h198zM600 809q-20 -5 -41.5 -27.5
t-32.5 -22.5q-21 0 -21 17t24.5 52t45.5 35q11 0 21 -15t10 -26.5t-6 -12.5zM413 809q-20 -5 -41.5 -27.5t-32.5 -22.5q-21 0 -21 17t24.5 52t45.5 35q11 0 21 -15t10 -26.5t-6 -12.5z" />
    <glyph glyph-name="Igrave" unicode="&#xcc;" horiz-adv-x="408" 
d="M217 698h226q-69 -53 -190 -328q-31 -70 -70.5 -183.5t-39.5 -165.5q0 -14 4 -21h-129q28 121 118 336q120 286 155 325q-85 -2 -172.5 -34.5t-101.5 -77.5q-1 -3 -4 -3q-9 0 -9 13q0 2 2 10q19 55 55 85t70.5 37t85.5 7zM311 780q-43 22 -59.5 29t-16.5 9q0 6 20 17
t28 11t12 -2q18 -13 53 -38l57 -43q23 -17 30 -20q0 -3 -10 -7.5t-12.5 -4.5t-30.5 14z" />
    <glyph glyph-name="Iacute" unicode="&#xcd;" horiz-adv-x="408" 
d="M217 698h226q-69 -53 -190 -328q-31 -70 -70.5 -183.5t-39.5 -165.5q0 -14 4 -21h-129q28 121 118 336q120 286 155 325q-85 -2 -172.5 -34.5t-101.5 -77.5q-1 -3 -4 -3q-9 0 -9 13q0 2 2 10q19 55 55 85t70.5 37t85.5 7zM525 810q-40 -17 -106 -50.5t-69 -33.5t-12.5 5
t-9.5 7q9 5 65.5 46.5t74.5 54.5q4 2 12 2t27.5 -11t19.5 -17q0 -2 -2 -3z" />
    <glyph glyph-name="Icircumflex" unicode="&#xce;" horiz-adv-x="408" 
d="M217 698h226q-69 -53 -190 -328q-31 -70 -70.5 -183.5t-39.5 -165.5q0 -14 4 -21h-129q28 121 118 336q120 286 155 325q-85 -2 -172.5 -34.5t-101.5 -77.5q-1 -3 -4 -3q-9 0 -9 13q0 2 2 10q19 55 55 85t70.5 37t85.5 7zM511 754v-1q0 -3 -14.5 -11t-22.5 -8
q-14 0 -38.5 36t-36.5 63q-33 -32 -73.5 -63.5t-56.5 -31.5t-16 3v1q96 78 146 130q8 9 16.5 9t24 -22.5t37.5 -56t34 -48.5z" />
    <glyph glyph-name="Idieresis" unicode="&#xcf;" horiz-adv-x="408" 
d="M217 698h226q-69 -53 -190 -328q-31 -70 -70.5 -183.5t-39.5 -165.5q0 -14 4 -21h-129q28 121 118 336q120 286 155 325q-85 -2 -172.5 -34.5t-101.5 -77.5q-1 -3 -4 -3q-9 0 -9 13q0 2 2 10q19 55 55 85t70.5 37t85.5 7zM511 809q-20 -5 -41.5 -27.5t-32.5 -22.5
q-21 0 -21 17t24.5 52t45.5 35q11 0 21 -15t10 -26.5t-6 -12.5zM324 809q-20 -5 -41.5 -27.5t-32.5 -22.5q-21 0 -21 17t24.5 52t45.5 35q11 0 21 -15t10 -26.5t-6 -12.5z" />
    <glyph glyph-name="Eth" unicode="&#xd0;" horiz-adv-x="731" 
d="M743 358q-19 -118 -89 -205t-170 -130t-217 -43q-217 0 -217 111q0 45 11.5 79.5t15.5 45.5q15 45 30 74h-99q-1 0 -1 5.5t14 27.5t23 22h85q58 138 101.5 223.5t46.5 89.5q-79 -6 -161 -35t-107 -72q-1 -3 -5 -3t-4 5.5t1 7.5q38 104 139 127q46 10 123 10h205
q142 0 211 -77t69 -196q0 -29 -5 -67zM638 350q11 46 11 88q0 97 -57 161q-32 35 -87.5 51.5t-103.5 16.5q-73 -97 -165 -322h117q1 0 1 -5.5t-14 -27.5t-23 -22h-102q-2 -6 -9.5 -24t-10.5 -26t-9 -25t-9 -26.5t-7.5 -25t-6.5 -27.5q-5 -28 -5 -58.5t20 -42.5t71 -12
q139 0 248 93.5t141 233.5z" />
    <glyph glyph-name="Ntilde" unicode="&#xd1;" horiz-adv-x="703" 
d="M858 697q-40 -26 -112.5 -168t-129 -296.5t-56.5 -214.5q0 -13 2 -18h-63q-3 58 -20.5 101.5t-26.5 65t-31 71.5t-39 90q-52 121 -59 206q-66 -147 -130 -311t-64 -214q0 -7 1 -9h-92q57 146 163 385t129 284q-91 0 -177.5 -36t-101.5 -84q-1 -3 -4 -3q-8 0 -8 13
q0 2 8 27t30.5 52t52.5 40q49 20 121 20h169q-14 -23 -14 -56q0 -74 57 -208q52 -125 61.5 -159.5t12 -45.5t3.5 -26t2 -19q13 32 223 514q2 5 18.5 5t43.5 -3t31 -3zM756 883q-42 -72 -80 -72q-23 0 -65 18t-66.5 18t-42.5 -15t-19 -15q-11 0 -11 9.5t26 38.5t50.5 29
t70.5 -18.5t66.5 -18.5t32 10.5t18.5 20.5t13 10q9 0 9 -8q0 -3 -2 -7z" />
    <glyph glyph-name="Ograve" unicode="&#xd2;" horiz-adv-x="763" 
d="M718 303q-66 -150 -188.5 -242.5t-278.5 -92.5q-248 0 -248 219q0 99 41.5 194.5t109.5 167t161 115.5t190 44q127 0 190.5 -62.5t63.5 -156t-41 -186.5zM676 499q0 163 -146 163q-106 0 -202.5 -73t-152 -183t-55.5 -220q0 -79 35 -128t111.5 -49t153.5 46t132 117.5
t89.5 159t34.5 167.5zM504 798q-43 22 -59.5 29t-16.5 9q0 6 20 17t28 11t12 -2q18 -13 52 -38l58 -43q23 -17 30 -20q0 -3 -10 -7.5t-12.5 -4.5t-30.5 14z" />
    <glyph glyph-name="Oacute" unicode="&#xd3;" horiz-adv-x="763" 
d="M718 303q-66 -150 -188.5 -242.5t-278.5 -92.5q-248 0 -248 219q0 99 41.5 194.5t109.5 167t161 115.5t190 44q127 0 190.5 -62.5t63.5 -156t-41 -186.5zM676 499q0 163 -146 163q-106 0 -202.5 -73t-152 -183t-55.5 -220q0 -79 35 -128t111.5 -49t153.5 46t132 117.5
t89.5 159t34.5 167.5zM681 835q-40 -17 -106 -50.5t-69 -33.5t-12.5 5t-9.5 7q9 5 65.5 46.5t74.5 54.5q4 2 12 2t27.5 -11t19.5 -17q0 -2 -2 -3z" />
    <glyph glyph-name="Ocircumflex" unicode="&#xd4;" horiz-adv-x="763" 
d="M718 303q-66 -150 -188.5 -242.5t-278.5 -92.5q-248 0 -248 219q0 99 41.5 194.5t109.5 167t161 115.5t190 44q127 0 190.5 -62.5t63.5 -156t-41 -186.5zM676 499q0 163 -146 163q-106 0 -202.5 -73t-152 -183t-55.5 -220q0 -79 35 -128t111.5 -49t153.5 46t132 117.5
t89.5 159t34.5 167.5zM687 775v-1q0 -3 -14.5 -11t-22.5 -8q-14 0 -38.5 36t-36.5 63q-33 -32 -73.5 -63.5t-56.5 -31.5t-16 3v1q96 78 146 130q8 9 16.5 9t24 -22.5t37.5 -56t34 -48.5z" />
    <glyph glyph-name="Otilde" unicode="&#xd5;" horiz-adv-x="763" 
d="M718 303q-66 -150 -188.5 -242.5t-278.5 -92.5q-248 0 -248 219q0 99 41.5 194.5t109.5 167t161 115.5t190 44q127 0 190.5 -62.5t63.5 -156t-41 -186.5zM676 499q0 163 -146 163q-106 0 -202.5 -73t-152 -183t-55.5 -220q0 -79 35 -128t111.5 -49t153.5 46t132 117.5
t89.5 159t34.5 167.5zM722 883q-42 -72 -80 -72q-23 0 -65 18t-66.5 18t-42.5 -15t-19 -15q-11 0 -11 9.5t26 38.5t50.5 29t70.5 -18.5t66.5 -18.5t32 10.5t18.5 20.5t13 10q9 0 9 -8q0 -3 -2 -7z" />
    <glyph glyph-name="Odieresis" unicode="&#xd6;" horiz-adv-x="763" 
d="M718 303q-66 -150 -188.5 -242.5t-278.5 -92.5q-248 0 -248 219q0 99 41.5 194.5t109.5 167t161 115.5t190 44q127 0 190.5 -62.5t63.5 -156t-41 -186.5zM676 499q0 163 -146 163q-106 0 -202.5 -73t-152 -183t-55.5 -220q0 -79 35 -128t111.5 -49t153.5 46t132 117.5
t89.5 159t34.5 167.5zM703 846q-20 -5 -41.5 -27.5t-32.5 -22.5q-21 0 -21 17t24.5 52t45.5 35q11 0 21 -15t10 -26.5t-6 -12.5zM516 846q-20 -5 -41.5 -27.5t-32.5 -22.5q-21 0 -21 17t24.5 52t45.5 35q11 0 21 -15t10 -26.5t-6 -12.5z" />
    <glyph glyph-name="multiply" unicode="&#xd7;" horiz-adv-x="740" 
d="M414 342l237 169h1q2 0 2 -14q0 -55 -15 -66l-183 -130l139 -133q3 -3 3 -15t-7.5 -38t-12.5 -26l-179 171l-241 -171h-1q-3 0 -3 15.5t4.5 37.5t10.5 26l187 133l-135 130q-3 3 -3 14.5t8 38.5t12 27h1z" />
    <glyph glyph-name="Oslash" unicode="&#xd8;" horiz-adv-x="763" 
d="M718 303q-66 -150 -188.5 -242.5t-278.5 -92.5q-44 0 -84 8l-24 -34q-2 -3 -27 -3t-25 7v1l30 42q-118 45 -118 197q0 130 67.5 249.5t181 194.5t240.5 78q77 0 131 -19l15 20q3 3 27.5 3t24.5 -7v-1l-25 -35q94 -59 94 -189q0 -82 -41 -177zM642 331.5q34 87.5 34 171
t-42 123.5l-433 -604q29 -13 65 -13q78 0 155 46.5t132 117.5t89 158.5zM164 49l432 602q-28 11 -60 11q-78 0 -154.5 -45t-132.5 -114.5t-91 -156t-35 -170t41 -127.5z" />
    <glyph glyph-name="Ugrave" unicode="&#xd9;" horiz-adv-x="747" 
d="M278 630q18 29 19 31q-85 -2 -172.5 -34.5t-101.5 -77.5q-1 -3 -4 -3q-9 0 -9 13q0 2 8.5 27t31.5 52t52 40q49 20 121 20h227q-46 -35 -113.5 -162t-106.5 -224q-55 -127 -55 -191.5t51 -64.5q43 0 111 61.5t134 150.5q130 177 183 275.5t82 126.5t64 28h62
q-47 -36 -137 -216q-135 -272 -135 -391q0 -55 35 -55q17 0 40 13h1q3 0 3 -6q0 -19 -50 -35t-81 -16q-64 0 -64 74q0 37 26 118.5t66 168.5q-149 -222 -222 -287q-81 -73 -150 -73q-115 0 -115 111q0 82 60.5 233.5t138.5 292.5zM568 796q-43 21 -59.5 28.5t-16.5 8.5
q0 6 20 17t28 11t12 -2q18 -13 52 -39l58 -42q23 -17 30 -20q0 -3 -10 -7.5t-12.5 -4.5t-30.5 14z" />
    <glyph glyph-name="Uacute" unicode="&#xda;" horiz-adv-x="747" 
d="M278 630q18 29 19 31q-85 -2 -172.5 -34.5t-101.5 -77.5q-1 -3 -4 -3q-9 0 -9 13q0 2 8.5 27t31.5 52t52 40q49 20 121 20h227q-46 -35 -113.5 -162t-106.5 -224q-55 -127 -55 -191.5t51 -64.5q43 0 111 61.5t134 150.5q130 177 183 275.5t82 126.5t64 28h62
q-47 -36 -137 -216q-135 -272 -135 -391q0 -55 35 -55q17 0 40 13h1q3 0 3 -6q0 -19 -50 -35t-81 -16q-64 0 -64 74q0 37 26 118.5t66 168.5q-149 -222 -222 -287q-81 -73 -150 -73q-115 0 -115 111q0 82 60.5 233.5t138.5 292.5zM735 827q-40 -17 -106 -50.5t-69 -33.5
t-12.5 5t-9.5 7q9 5 65.5 46.5t74.5 54.5q4 2 12 2t27.5 -11t19.5 -17q0 -2 -2 -3z" />
    <glyph glyph-name="Ucircumflex" unicode="&#xdb;" horiz-adv-x="747" 
d="M278 630q18 29 19 31q-85 -2 -172.5 -34.5t-101.5 -77.5q-1 -3 -4 -3q-9 0 -9 13q0 2 8.5 27t31.5 52t52 40q49 20 121 20h227q-46 -35 -113.5 -162t-106.5 -224q-55 -127 -55 -191.5t51 -64.5q43 0 111 61.5t134 150.5q130 177 183 275.5t82 126.5t64 28h62
q-47 -36 -137 -216q-135 -272 -135 -391q0 -55 35 -55q17 0 40 13h1q3 0 3 -6q0 -19 -50 -35t-81 -16q-64 0 -64 74q0 37 26 118.5t66 168.5q-149 -222 -222 -287q-81 -73 -150 -73q-115 0 -115 111q0 82 60.5 233.5t138.5 292.5zM746 754v-1q0 -3 -14.5 -11t-22.5 -8
q-14 0 -38.5 36t-36.5 63q-33 -32 -73.5 -63.5t-56.5 -31.5t-16 3v1q96 78 146 130q8 9 16.5 9t24 -22.5t37.5 -56t34 -48.5z" />
    <glyph glyph-name="Udieresis" unicode="&#xdc;" horiz-adv-x="747" 
d="M278 630q18 29 19 31q-85 -2 -172.5 -34.5t-101.5 -77.5q-1 -3 -4 -3q-9 0 -9 13q0 2 8.5 27t31.5 52t52 40q49 20 121 20h227q-46 -35 -113.5 -162t-106.5 -224q-55 -127 -55 -191.5t51 -64.5q43 0 111 61.5t134 150.5q130 177 183 275.5t82 126.5t64 28h62
q-47 -36 -137 -216q-135 -272 -135 -391q0 -55 35 -55q17 0 40 13h1q3 0 3 -6q0 -19 -50 -35t-81 -16q-64 0 -64 74q0 37 26 118.5t66 168.5q-149 -222 -222 -287q-81 -73 -150 -73q-115 0 -115 111q0 82 60.5 233.5t138.5 292.5zM741 804q-20 -5 -41.5 -27.5t-32.5 -22.5
q-21 0 -21 17t24.5 52t45.5 35q11 0 21 -15t10 -26.5t-6 -12.5zM554 804q-20 -5 -41.5 -27.5t-32.5 -22.5q-21 0 -21 17t24.5 52t45.5 35q11 0 21 -15t10 -26.5t-6 -12.5z" />
    <glyph glyph-name="Yacute" unicode="&#xdd;" horiz-adv-x="684" 
d="M756 698q-94 -65 -186 -169q-114 -129 -182 -278q-38 -85 -56 -171q-8 -37 -8 -55t4 -25h-129q4 17 39.5 124t35.5 154.5t-23 127.5t-61.5 146.5t-74.5 66.5q-45 0 -104 -78q-1 -1 -2 -1q-5 0 -5 8t1 9q35 71 74 104.5t99 33.5t87 -31t54.5 -124.5t54.5 -202.5
q21 29 112 159t131 182q16 21 82 21q11 0 30.5 -0.5t26.5 -0.5zM591 810q-40 -17 -106 -50.5t-69 -33.5t-12.5 5t-9.5 7q9 5 65.5 46.5t74.5 54.5q4 2 12 2t27.5 -11t19.5 -17q0 -2 -2 -3z" />
    <glyph glyph-name="Thorn" unicode="&#xde;" horiz-adv-x="499" 
d="M422 724l43 -3q14 0 29 2q-40 -26 -130 -174h47q92 0 139 -40t47 -101q0 -108 -109.5 -181.5t-274.5 -73.5q-23 0 -46 3q-83 -210 -83 -284q0 -11 4 -21h-129q40 165 169 455q5 11 22 51q30 74 58 116l20 39q-84 -2 -169.5 -35t-99.5 -77q-1 -3 -4 -3q-9 0 -9 13
q0 2 8.5 27t31.5 52t52 39q49 21 121 21h89q42 78 78 128q35 47 96 47zM329.5 197q71.5 25 117 76t45.5 123q0 115 -137 123q-71 -91 -161 -298l-21 -49h12q73 0 144.5 25z" />
    <glyph glyph-name="germandbls" unicode="&#xdf;" horiz-adv-x="544" 
d="M617 202q-66 -113 -131 -166t-168 -53q-53 0 -89.5 21t-36.5 60q0 24 14 44.5t38.5 20.5t31.5 -18q-19 -19 -19 -44q0 -50 56 -50q33 0 57.5 23t24.5 47.5t-10.5 45.5t-42.5 52.5t-54.5 62t-22.5 69t25 66.5t61 46.5t72.5 37t61.5 49t25 70t-22.5 58.5t-54.5 19
q-121 0 -250 -352q-3 -7 -5.5 -14.5t-19 -52t-23.5 -62.5t-22.5 -58t-25.5 -63.5t-24 -56.5q-22 -51 -60.5 -117t-86.5 -104t-116 -38t-98 25t-30 56.5t16.5 51.5t35.5 20q39 0 39 -28q0 -6 -13.5 -26.5t-13.5 -34.5q0 -32 36 -32q16 0 43 13t59 49.5t55 75.5t49 99t41 102
t37.5 108.5t37 105.5t23.5 63.5t30.5 72.5t38 74.5t45 62t56.5 53.5q70 47 150 47q52 0 97.5 -29t45.5 -82q0 -37 -23.5 -65t-57.5 -46t-68 -35.5t-57.5 -43.5t-23.5 -55t14.5 -49.5t35.5 -36t42 -31.5q50 -40 50 -96q0 -28 -14.5 -53t-34.5 -40q34 14 68 51.5t55 74t37 65
t20.5 28.5t4.5 -20t-11 -38z" />
    <glyph glyph-name="agrave" unicode="&#xe0;" horiz-adv-x="473" 
d="M445 400l50 -1h10q-33 -27 -81 -136.5t-48 -159.5q0 -26 18 -26q58 0 148 171q4 7 7 7q6 0 6 -18.5t-10 -35.5q-123 -207 -206 -207q-54 0 -54 83q0 62 21 122q-114 -202 -211 -202q-67 0 -67 92q0 70 30.5 142t87.5 122.5t125 50.5q32 0 60 -14.5t37 -46.5q11 23 34 40
t43 17zM362 334q-10 32 -47 32q-66 0 -128 -91.5t-62 -163.5q0 -31 24 -31q26 0 61 32.5t63 76.5q62 98 89 145zM324 552q-43 22 -59.5 29t-16.5 9q0 6 20 17t28 11t12 -2q18 -13 52 -38l58 -43q23 -17 30 -20q0 -3 -10 -7.5t-12.5 -4.5t-30.5 14z" />
    <glyph glyph-name="aacute" unicode="&#xe1;" horiz-adv-x="473" 
d="M445 400l50 -1h10q-33 -27 -81 -136.5t-48 -159.5q0 -26 18 -26q58 0 148 171q4 7 7 7q6 0 6 -18.5t-10 -35.5q-123 -207 -206 -207q-54 0 -54 83q0 62 21 122q-114 -202 -211 -202q-67 0 -67 92q0 70 30.5 142t87.5 122.5t125 50.5q32 0 60 -14.5t37 -46.5q11 23 34 40
t43 17zM362 334q-10 32 -47 32q-66 0 -128 -91.5t-62 -163.5q0 -31 24 -31q26 0 61 32.5t63 76.5q62 98 89 145zM469 588q-40 -17 -106 -50.5t-69 -33.5t-12.5 5t-9.5 7q9 5 65.5 46.5t74.5 54.5q4 2 12 2t27.5 -11t19.5 -17q0 -2 -2 -3z" />
    <glyph glyph-name="acircumflex" unicode="&#xe2;" horiz-adv-x="473" 
d="M445 400l50 -1h10q-33 -27 -81 -136.5t-48 -159.5q0 -26 18 -26q58 0 148 171q4 7 7 7q6 0 6 -18.5t-10 -35.5q-123 -207 -206 -207q-54 0 -54 83q0 62 21 122q-114 -202 -211 -202q-67 0 -67 92q0 70 30.5 142t87.5 122.5t125 50.5q32 0 60 -14.5t37 -46.5q11 23 34 40
t43 17zM362 334q-10 32 -47 32q-66 0 -128 -91.5t-62 -163.5q0 -31 24 -31q26 0 61 32.5t63 76.5q62 98 89 145zM476 511v-1q0 -3 -14.5 -11t-22.5 -8q-14 0 -38.5 36t-36.5 63q-33 -32 -73.5 -63.5t-56.5 -31.5t-16 3v1q96 78 146 130q8 9 16.5 9t24 -22.5t37.5 -56
t34 -48.5z" />
    <glyph glyph-name="atilde" unicode="&#xe3;" horiz-adv-x="473" 
d="M445 400l50 -1h10q-33 -27 -81 -136.5t-48 -159.5q0 -26 18 -26q58 0 148 171q4 7 7 7q6 0 6 -18.5t-10 -35.5q-123 -207 -206 -207q-54 0 -54 83q0 62 21 122q-114 -202 -211 -202q-67 0 -67 92q0 70 30.5 142t87.5 122.5t125 50.5q32 0 60 -14.5t37 -46.5q11 23 34 40
t43 17zM362 334q-10 32 -47 32q-66 0 -128 -91.5t-62 -163.5q0 -31 24 -31q26 0 61 32.5t63 76.5q62 98 89 145zM513 593q-42 -72 -80 -72q-23 0 -65 18t-66.5 18t-42.5 -15t-19 -15q-11 0 -11 9.5t26 38.5t50.5 29t70.5 -18.5t66.5 -18.5t32 10.5t18.5 20.5t13 10q9 0 9 -8
q0 -3 -2 -7z" />
    <glyph glyph-name="adieresis" unicode="&#xe4;" horiz-adv-x="473" 
d="M445 400l50 -1h10q-33 -27 -81 -136.5t-48 -159.5q0 -26 18 -26q58 0 148 171q4 7 7 7q6 0 6 -18.5t-10 -35.5q-123 -207 -206 -207q-54 0 -54 83q0 62 21 122q-114 -202 -211 -202q-67 0 -67 92q0 70 30.5 142t87.5 122.5t125 50.5q32 0 60 -14.5t37 -46.5q11 23 34 40
t43 17zM362 334q-10 32 -47 32q-66 0 -128 -91.5t-62 -163.5q0 -31 24 -31q26 0 61 32.5t63 76.5q62 98 89 145zM510 558q-20 -5 -41.5 -27.5t-32.5 -22.5q-21 0 -21 17t24.5 52t45.5 35q11 0 21 -15t10 -26.5t-6 -12.5zM323 558q-20 -5 -41.5 -27.5t-32.5 -22.5
q-21 0 -21 17t24.5 52t45.5 35q11 0 21 -15t10 -26.5t-6 -12.5z" />
    <glyph glyph-name="aring" unicode="&#xe5;" horiz-adv-x="473" 
d="M445 400l50 -1h10q-33 -27 -81 -136.5t-48 -159.5q0 -26 18 -26q58 0 148 171q4 7 7 7q6 0 6 -18.5t-10 -35.5q-123 -207 -206 -207q-54 0 -54 83q0 62 21 122q-114 -202 -211 -202q-67 0 -67 92q0 70 30.5 142t87.5 122.5t125 50.5q32 0 60 -14.5t37 -46.5q11 23 34 40
t43 17zM362 334q-10 32 -47 32q-66 0 -128 -91.5t-62 -163.5q0 -31 24 -31q26 0 61 32.5t63 76.5q62 98 89 145zM488 573q-12 -37 -46 -63t-75.5 -26t-59.5 18.5t-18 47.5q0 44 36.5 80.5t93.5 36.5q36 0 55 -18.5t19 -46.5q0 -12 -5 -29zM432 643l-10 1q-32 0 -56 -30.5
t-24 -62.5q0 -39 38 -39q33 0 57.5 30.5t24.5 63.5t-30 37z" />
    <glyph glyph-name="ae" unicode="&#xe6;" horiz-adv-x="618" 
d="M445 400l50 -1h10q-7 -6 -20 -26q48 25 85.5 25t55 -17.5t17.5 -38.5q0 -74 -54.5 -112.5t-108 -38.5t-77.5 13l-10 -28q-8 -21 -9 -60.5t17 -62t57 -22.5t83.5 32.5t76 73t71.5 116.5q4 7 7 7q6 0 6 -19.5t-16 -46.5t-31.5 -51t-41.5 -56t-51 -51q-63 -46 -126 -46
t-102.5 32t-39.5 96q0 34 16 74q-65 -97 -115 -146t-100 -49q-67 0 -67 92q0 70 30.5 142t87.5 122.5t125 50.5q32 0 60 -14.5t37 -46.5q10 21 32.5 39t44.5 18zM362 334q-10 32 -47 32q-66 0 -128 -91.5t-62 -163.5q0 -31 24 -31q26 0 61 32.5t63 76.5q62 98 89 145z
M590 339q0 29 -28 29q-39 0 -87 -48t-48 -78q0 -20 38 -20t79.5 37t45.5 80z" />
    <glyph glyph-name="ccedilla" unicode="&#xe7;" horiz-adv-x="358" 
d="M434 256q6 0 6 -19t-16.5 -47t-26 -42.5t-32.5 -46.5t-40 -46t-43 -33q-44 -32 -114.5 -32t-102 35.5t-31.5 92.5q0 105 74.5 192.5t175.5 87.5q45 0 72 -23.5t27 -56t-18 -56.5t-41 -24q-45 0 -45 37q0 12 25 23q10 4 18 15t8 29q0 26 -28 26q-60 0 -119 -87t-59 -168.5
t71 -81.5q99 0 193 153q19 30 31.5 51t14.5 21zM165 -72q-1 -4 -9.5 -3t-14.5 1q-35 0 -67 -46t-32 -92t40 -46q37 0 73 38q2 2 4.5 2t2.5 -7q0 -24 -31.5 -40.5t-68 -16.5t-54.5 20.5t-18 53.5q0 65 42.5 108.5t105.5 43.5h4l20 46q1 4 11.5 4t10.5 -3z" />
    <glyph glyph-name="egrave" unicode="&#xe8;" horiz-adv-x="358" 
d="M436 260q6 0 6 -19.5t-16 -46.5t-31.5 -51t-41.5 -56t-51 -51q-63 -46 -126.5 -46t-102.5 32.5t-39 99.5q0 102 75 189t175 87q45 0 72 -23.5t27 -56.5q0 -56 -53 -90t-125 -34q-42 0 -62 11q-19 -51 -19 -90q0 -84 71 -84q42 0 86.5 32.5t76 73t71.5 116.5q4 7 7 7z
M330 339q0 29 -28 29q-39 0 -87 -48t-48 -78q0 -20 38 -20t79.5 37t45.5 80zM258 540q-43 22 -59.5 29t-16.5 9q0 6 20 17t28 11t12 -2q18 -13 52 -38l58 -43q23 -17 30 -20q0 -3 -10 -7.5t-12.5 -4.5t-30.5 14z" />
    <glyph glyph-name="eacute" unicode="&#xe9;" horiz-adv-x="358" 
d="M436 260q6 0 6 -19.5t-16 -46.5t-31.5 -51t-41.5 -56t-51 -51q-63 -46 -126.5 -46t-102.5 32.5t-39 99.5q0 102 75 189t175 87q45 0 72 -23.5t27 -56.5q0 -56 -53 -90t-125 -34q-42 0 -62 11q-19 -51 -19 -90q0 -84 71 -84q42 0 86.5 32.5t76 73t71.5 116.5q4 7 7 7z
M330 339q0 29 -28 29q-39 0 -87 -48t-48 -78q0 -20 38 -20t79.5 37t45.5 80zM455 571q-40 -17 -106 -50.5t-69 -33.5t-12.5 5t-9.5 7q9 5 65.5 46.5t74.5 54.5q4 2 12 2t27.5 -11t19.5 -17q0 -2 -2 -3z" />
    <glyph glyph-name="ecircumflex" unicode="&#xea;" horiz-adv-x="358" 
d="M436 260q6 0 6 -19.5t-16 -46.5t-31.5 -51t-41.5 -56t-51 -51q-63 -46 -126.5 -46t-102.5 32.5t-39 99.5q0 102 75 189t175 87q45 0 72 -23.5t27 -56.5q0 -56 -53 -90t-125 -34q-42 0 -62 11q-19 -51 -19 -90q0 -84 71 -84q42 0 86.5 32.5t76 73t71.5 116.5q4 7 7 7z
M330 339q0 29 -28 29q-39 0 -87 -48t-48 -78q0 -20 38 -20t79.5 37t45.5 80zM450 515v-1q0 -3 -14.5 -11t-22.5 -8q-14 0 -38.5 36t-36.5 63q-33 -32 -73.5 -63.5t-56.5 -31.5t-16 3v1q96 78 146 130q8 9 16.5 9t24 -22.5t37.5 -56t34 -48.5z" />
    <glyph glyph-name="edieresis" unicode="&#xeb;" horiz-adv-x="358" 
d="M436 260q6 0 6 -19.5t-16 -46.5t-31.5 -51t-41.5 -56t-51 -51q-63 -46 -126.5 -46t-102.5 32.5t-39 99.5q0 102 75 189t175 87q45 0 72 -23.5t27 -56.5q0 -56 -53 -90t-125 -34q-42 0 -62 11q-19 -51 -19 -90q0 -84 71 -84q42 0 86.5 32.5t76 73t71.5 116.5q4 7 7 7z
M330 339q0 29 -28 29q-39 0 -87 -48t-48 -78q0 -20 38 -20t79.5 37t45.5 80zM482 557q-20 -5 -41.5 -27.5t-32.5 -22.5q-21 0 -21 17t24.5 52t45.5 35q11 0 21 -15t10 -26.5t-6 -12.5zM295 557q-20 -5 -41.5 -27.5t-32.5 -22.5q-21 0 -21 17t24.5 52t45.5 35q11 0 21 -15
t10 -26.5t-6 -12.5z" />
    <glyph glyph-name="igrave" unicode="&#xec;" horiz-adv-x="217" 
d="M186 400l50 -1h10q-16 -12 -42.5 -65t-39.5 -80t-29.5 -73t-16.5 -75t19 -29q13 0 36.5 17.5t38.5 37t33.5 49.5t32 52t15.5 22q6 0 6 -18.5t-10 -35.5q-37 -62 -67.5 -103.5t-69.5 -72.5t-71 -31q-56 0 -56 78q0 121 83 268q35 60 78 60zM179 550q-43 21 -59.5 28.5
t-16.5 8.5q0 6 20 17t28 11t12 -2q18 -13 53 -39l57 -42q23 -17 30 -20q0 -3 -10 -7.5t-12.5 -4.5t-30.5 14z" />
    <glyph glyph-name="iacute" unicode="&#xed;" horiz-adv-x="217" 
d="M186 400l50 -1h10q-16 -12 -42.5 -65t-39.5 -80t-29.5 -73t-16.5 -75t19 -29q13 0 36.5 17.5t38.5 37t33.5 49.5t32 52t15.5 22q6 0 6 -18.5t-10 -35.5q-37 -62 -67.5 -103.5t-69.5 -72.5t-71 -31q-56 0 -56 78q0 121 83 268q35 60 78 60zM365 587q-40 -17 -106 -50.5
t-69 -33.5t-12.5 5t-9.5 7q9 5 65.5 46.5t74.5 54.5q4 2 12 2t27.5 -11t19.5 -17q0 -2 -2 -3z" />
    <glyph glyph-name="icircumflex" unicode="&#xee;" horiz-adv-x="217" 
d="M186 400l50 -1h10q-16 -12 -42.5 -65t-39.5 -80t-29.5 -73t-16.5 -75t19 -29q13 0 36.5 17.5t38.5 37t33.5 49.5t32 52t15.5 22q6 0 6 -18.5t-10 -35.5q-37 -62 -67.5 -103.5t-69.5 -72.5t-71 -31q-56 0 -56 78q0 121 83 268q35 60 78 60zM360 509v-1q0 -3 -14.5 -11
t-22.5 -8q-14 0 -38.5 36t-36.5 63q-33 -32 -73.5 -63.5t-56.5 -31.5t-16 3v1q96 78 146 130q8 9 16.5 9t24 -22.5t37.5 -56t34 -48.5z" />
    <glyph glyph-name="idieresis" unicode="&#xef;" horiz-adv-x="217" 
d="M186 400l50 -1h10q-16 -12 -42.5 -65t-39.5 -80t-29.5 -73t-16.5 -75t19 -29q13 0 36.5 17.5t38.5 37t33.5 49.5t32 52t15.5 22q6 0 6 -18.5t-10 -35.5q-37 -62 -67.5 -103.5t-69.5 -72.5t-71 -31q-56 0 -56 78q0 121 83 268q35 60 78 60zM366 559q-20 -5 -41.5 -27.5
t-32.5 -22.5q-21 0 -21 17t24.5 52t45.5 35q11 0 21 -15t10 -26.5t-6 -12.5zM179 559q-20 -5 -41.5 -27.5t-32.5 -22.5q-21 0 -21 17t24.5 52t45.5 35q11 0 21 -15t10 -26.5t-6 -12.5z" />
    <glyph glyph-name="eth" unicode="&#xf0;" horiz-adv-x="482" 
d="M416.5 469.5q32.5 -82.5 32.5 -160.5t-30 -151t-95 -125.5t-142.5 -52.5t-115 51.5t-37.5 127.5t30.5 145t89 116.5t129.5 47.5q14 0 14 -5.5t-16 -11.5q-43 -14 -78.5 -62t-54 -107.5t-18.5 -114.5q0 -130 101 -130q66 0 106.5 64.5t40.5 142.5t-32.5 166t-84.5 155
q-86 -54 -135 -87h-1q-2 0 -2 11q0 44 13 52l94 60q-70 73 -141 73q-41 0 -41 -35q0 -17 15 -36t15 -29t-10.5 -18t-29.5 -8t-36 20.5t-17 52.5t32.5 58t100.5 26q98 0 177 -62l88 58q3 0 3 -12q0 -42 -12 -51l-43 -27q58 -59 90.5 -141.5z" />
    <glyph glyph-name="ntilde" unicode="&#xf1;" horiz-adv-x="436" 
d="M508 201q-37 -62 -67.5 -103.5t-69.5 -72.5t-71 -31q-59 0 -59 65t75 261q4 9 4 19q0 21 -26.5 21t-52 -16.5t-46.5 -47t-38 -62t-31.5 -72.5t-23 -68.5t-17 -59t-9.5 -34.5h-97q0 21 88 241q36 103 36 144q0 10 -3 15h42q35 0 45 -7t10 -19t-11 -49q84 80 169 80
q57 0 57 -52q0 -17 -5 -34t-25 -68q-44 -112 -44 -150q0 -24 18 -24q13 0 36.5 18t39 37.5t34 49t31.5 51.5t15 22q6 0 6 -18.5t-10 -35.5zM452 581q-42 -72 -80 -72q-23 0 -65 18t-66.5 18t-42.5 -15t-19 -15q-11 0 -11 9.5t26 38.5t50.5 29t70.5 -18.5t66.5 -18.5t32 10.5
t18.5 20.5t13 10q9 0 9 -8q0 -3 -2 -7z" />
    <glyph glyph-name="ograve" unicode="&#xf2;" 
d="M517 246q3 6 6 6q6 0 6 -15q0 -48 -38.5 -79.5t-72 -31.5t-57.5 19q-36 -71 -85.5 -112t-127.5 -41q-50 0 -81.5 30.5t-31.5 93t28.5 129t86 114.5t128.5 48q119 0 119 -126q0 -48 -21 -101q15 -21 43 -21q52 0 98 87zM350 308q-4 53 -48 53q-69 0 -135 -134
q-36 -74 -36 -134t52 -63q43 0 79.5 45.5t61.5 100.5q-34 29 -34 73q0 27 14.5 43t39.5 16h6zM250 546q-43 22 -59.5 29t-16.5 9q0 6 20 17t28 11t12 -2q18 -13 52 -38l58 -43q23 -17 30 -20q0 -3 -10 -7.5t-12.5 -4.5t-30.5 14z" />
    <glyph glyph-name="oacute" unicode="&#xf3;" 
d="M517 246q3 6 6 6q6 0 6 -15q0 -48 -38.5 -79.5t-72 -31.5t-57.5 19q-36 -71 -85.5 -112t-127.5 -41q-50 0 -81.5 30.5t-31.5 93t28.5 129t86 114.5t128.5 48q119 0 119 -126q0 -48 -21 -101q15 -21 43 -21q52 0 98 87zM350 308q-4 53 -48 53q-69 0 -135 -134
q-36 -74 -36 -134t52 -63q43 0 79.5 45.5t61.5 100.5q-34 29 -34 73q0 27 14.5 43t39.5 16h6zM431 581q-40 -17 -106 -50.5t-69 -33.5t-12.5 5t-9.5 7q9 5 65.5 46.5t74.5 54.5q4 2 12 2t27.5 -11t19.5 -17q0 -2 -2 -3z" />
    <glyph glyph-name="ocircumflex" unicode="&#xf4;" 
d="M517 246q3 6 6 6q6 0 6 -15q0 -48 -38.5 -79.5t-72 -31.5t-57.5 19q-36 -71 -85.5 -112t-127.5 -41q-50 0 -81.5 30.5t-31.5 93t28.5 129t86 114.5t128.5 48q119 0 119 -126q0 -48 -21 -101q15 -21 43 -21q52 0 98 87zM350 308q-4 53 -48 53q-69 0 -135 -134
q-36 -74 -36 -134t52 -63q43 0 79.5 45.5t61.5 100.5q-34 29 -34 73q0 27 14.5 43t39.5 16h6zM437 502v-1q0 -3 -14.5 -11t-22.5 -8q-14 0 -38.5 36t-36.5 63q-33 -32 -73.5 -63.5t-56.5 -31.5t-16 3v1q96 78 146 130q8 9 16.5 9t24 -22.5t37.5 -56t34 -48.5z" />
    <glyph glyph-name="otilde" unicode="&#xf5;" 
d="M517 246q3 6 6 6q6 0 6 -15q0 -48 -38.5 -79.5t-72 -31.5t-57.5 19q-36 -71 -85.5 -112t-127.5 -41q-50 0 -81.5 30.5t-31.5 93t28.5 129t86 114.5t128.5 48q119 0 119 -126q0 -48 -21 -101q15 -21 43 -21q52 0 98 87zM350 308q-4 53 -48 53q-69 0 -135 -134
q-36 -74 -36 -134t52 -63q43 0 79.5 45.5t61.5 100.5q-34 29 -34 73q0 27 14.5 43t39.5 16h6zM448 575q-42 -72 -80 -72q-23 0 -65 18t-66.5 18t-42.5 -15t-19 -15q-11 0 -11 9.5t26 38.5t50.5 29t70.5 -18.5t66.5 -18.5t32 10.5t18.5 20.5t13 10q9 0 9 -8q0 -3 -2 -7z" />
    <glyph glyph-name="odieresis" unicode="&#xf6;" 
d="M517 246q3 6 6 6q6 0 6 -15q0 -48 -38.5 -79.5t-72 -31.5t-57.5 19q-36 -71 -85.5 -112t-127.5 -41q-50 0 -81.5 30.5t-31.5 93t28.5 129t86 114.5t128.5 48q119 0 119 -126q0 -48 -21 -101q15 -21 43 -21q52 0 98 87zM350 308q-4 53 -48 53q-69 0 -135 -134
q-36 -74 -36 -134t52 -63q43 0 79.5 45.5t61.5 100.5q-34 29 -34 73q0 27 14.5 43t39.5 16h6zM480 550q-20 -5 -41.5 -27.5t-32.5 -22.5q-21 0 -21 17t24.5 52t45.5 35q11 0 21 -15t10 -26.5t-6 -12.5zM293 550q-20 -5 -41.5 -27.5t-32.5 -22.5q-21 0 -21 17t24.5 52
t45.5 35q11 0 21 -15t10 -26.5t-6 -12.5z" />
    <glyph glyph-name="divide" unicode="&#xf7;" horiz-adv-x="737" 
d="M456 481q-35 -47 -41 -47q-11 0 -26.5 12t-15.5 25.5t23 27.5t50 14q17 0 17 -16q0 -10 -7 -16zM201 372h376q1 0 1 -5t-18.5 -32.5t-28.5 -27.5h-376q-1 0 -1 5t19 32.5t28 27.5zM348 193q0 -10 -5.5 -15t-14.5 -17q-25 -31 -29 -31q-11 0 -26.5 12t-15.5 25.5t23.5 28
t45.5 14.5t22 -17z" />
    <glyph glyph-name="oslash" unicode="&#xf8;" 
d="M517 246q3 6 6 6q6 0 6 -15q0 -48 -38.5 -79.5t-72 -31.5t-57.5 19q-36 -72 -86 -112.5t-130 -40.5h-2l-65 -103q-3 -5 -19.5 -5t-16.5 2v1l69 110q-76 20 -76 117q0 64 28.5 130.5t86 114.5t128.5 48q48 0 78 -23l55 87q3 5 19.5 5t16.5 -2v-1l-70 -111q20 -31 20 -80
t-21 -102q15 -21 43 -21q52 0 98 87zM167 227q-36 -74 -36 -131q0 -31 13 -48l190 301q-10 12 -32 12q-69 0 -135 -134zM324 176q-26 21 -32 52l-124 -196q10 -2 15 -2q43 0 79.5 45.5t61.5 100.5z" />
    <glyph glyph-name="ugrave" unicode="&#xf9;" 
d="M416 403l48 -1q15 0 19 1q-28 -19 -80.5 -132.5t-52.5 -163.5q0 -30 20 -30q13 0 35.5 17t38.5 37.5t34.5 50.5t32 52t15.5 22q6 0 6 -19t-11 -36q-124 -207 -207 -207q-56 0 -56 83q0 26 4 50q-94 -133 -179 -133q-25 0 -40.5 21t-15.5 62t29 135.5t71 155.5
q10 15 21.5 18.5t43.5 3.5h48q-25 -34 -54 -92q-66 -137 -66 -201q0 -38 27.5 -38t65.5 53t81.5 137.5t50.5 95.5q37 58 71 58zM289 542q-43 21 -59.5 28.5t-16.5 8.5q0 6 20 17t28 11t12 -2q18 -13 53 -39l57 -42q23 -17 30 -20q0 -3 -10 -7.5t-12.5 -4.5t-30.5 14z" />
    <glyph glyph-name="uacute" unicode="&#xfa;" 
d="M416 403l48 -1q15 0 19 1q-28 -19 -80.5 -132.5t-52.5 -163.5q0 -30 20 -30q13 0 35.5 17t38.5 37.5t34.5 50.5t32 52t15.5 22q6 0 6 -19t-11 -36q-124 -207 -207 -207q-56 0 -56 83q0 26 4 50q-94 -133 -179 -133q-25 0 -40.5 21t-15.5 62t29 135.5t71 155.5
q10 15 21.5 18.5t43.5 3.5h48q-25 -34 -54 -92q-66 -137 -66 -201q0 -38 27.5 -38t65.5 53t81.5 137.5t50.5 95.5q37 58 71 58zM459 577q-40 -17 -106 -50.5t-69 -33.5t-12.5 5t-9.5 7q9 5 65.5 46.5t74.5 54.5q4 2 12 2t27.5 -11t19.5 -17q0 -2 -2 -3z" />
    <glyph glyph-name="ucircumflex" unicode="&#xfb;" 
d="M416 403l48 -1q15 0 19 1q-28 -19 -80.5 -132.5t-52.5 -163.5q0 -30 20 -30q13 0 35.5 17t38.5 37.5t34.5 50.5t32 52t15.5 22q6 0 6 -19t-11 -36q-124 -207 -207 -207q-56 0 -56 83q0 26 4 50q-94 -133 -179 -133q-25 0 -40.5 21t-15.5 62t29 135.5t71 155.5
q10 15 21.5 18.5t43.5 3.5h48q-25 -34 -54 -92q-66 -137 -66 -201q0 -38 27.5 -38t65.5 53t81.5 137.5t50.5 95.5q37 58 71 58zM477 505v-1q0 -3 -14.5 -11t-22.5 -8q-14 0 -38.5 36t-36.5 63q-33 -32 -73.5 -63.5t-56.5 -31.5t-16 3v1q96 78 146 130q8 9 16.5 9t24 -22.5
t37.5 -56t34 -48.5z" />
    <glyph glyph-name="udieresis" unicode="&#xfc;" 
d="M416 403l48 -1q15 0 19 1q-28 -19 -80.5 -132.5t-52.5 -163.5q0 -30 20 -30q13 0 35.5 17t38.5 37.5t34.5 50.5t32 52t15.5 22q6 0 6 -19t-11 -36q-124 -207 -207 -207q-56 0 -56 83q0 26 4 50q-94 -133 -179 -133q-25 0 -40.5 21t-15.5 62t29 135.5t71 155.5
q10 15 21.5 18.5t43.5 3.5h48q-25 -34 -54 -92q-66 -137 -66 -201q0 -38 27.5 -38t65.5 53t81.5 137.5t50.5 95.5q37 58 71 58zM475 554q-20 -5 -41.5 -27.5t-32.5 -22.5q-21 0 -21 17t24.5 52t45.5 35q11 0 21 -15t10 -26.5t-6 -12.5zM288 554q-20 -5 -41.5 -27.5
t-32.5 -22.5q-21 0 -21 17t24.5 52t45.5 35q11 0 21 -15t10 -26.5t-6 -12.5z" />
    <glyph glyph-name="yacute" unicode="&#xfd;" horiz-adv-x="425" 
d="M440 390h41q-31 -19 -63 -94q-26 -63 -44 -114.5t-22 -62.5t-18.5 -53.5t-23.5 -65.5q-25 -70 -58 -111t-82 -65.5t-99 -24.5t-85.5 19.5t-35.5 61.5q0 22 13.5 39.5t31 17.5t29.5 -8t17 -18q-18 -6 -18 -42q0 -19 13.5 -30.5t34.5 -11.5q81 0 136 145l57 152
q-47 -59 -81.5 -88.5t-54 -35.5t-46 -6t-42.5 21.5t-15.5 63t24 118.5t52 122t59 58t83.5 13q4 0 4 -4t-6 -10q-41 -36 -83.5 -129t-42.5 -157q0 -34 19 -34q36 0 92 72t86 144q4 10 11.5 29t10.5 26t9.5 19.5t11.5 17t13.5 11.5t17.5 9q29 6 54 6zM464 571
q-40 -17 -106 -50.5t-69 -33.5t-12.5 5t-9.5 7q9 5 65.5 46.5t74.5 54.5q4 2 12 2t27.5 -11t19.5 -17q0 -2 -2 -3z" />
    <glyph glyph-name="thorn" unicode="&#xfe;" horiz-adv-x="394" 
d="M466 201q-68 -123 -134.5 -170.5t-155.5 -47.5t-104 37l-3 11l-56 -175q-20 -59 -30.5 -76.5t-23.5 -22.5t-33 -5h-48q30 43 66 147q9 24 26.5 74.5t27.5 77.5q7 32 15.5 52t30.5 95.5t44.5 145.5t52.5 142t70 116t84 44h30q-18 -11 -49 -64q-71 -122 -126 -315
q38 58 85 97.5t88 39.5q67 0 67 -92q0 -77 -47 -153.5t-114 -127.5h7h1q74 0 157 106q13 16 44 68t33 52q6 0 6 -18.5t-11 -37.5zM278 319q-3 1 -9 1q-21 0 -46 -20q-41 -32 -87 -106t-46 -121t29 -47q35 0 77.5 52t69.5 114.5t27 92.5t-15 34z" />
    <glyph glyph-name="ydieresis" unicode="&#xff;" horiz-adv-x="425" 
d="M440 390h41q-31 -19 -63 -94q-26 -63 -44 -114.5t-22 -62.5t-18.5 -53.5t-23.5 -65.5q-25 -70 -58 -111t-82 -65.5t-99 -24.5t-85.5 19.5t-35.5 61.5q0 22 13.5 39.5t31 17.5t29.5 -8t17 -18q-18 -6 -18 -42q0 -19 13.5 -30.5t34.5 -11.5q81 0 136 145l57 152
q-47 -59 -81.5 -88.5t-54 -35.5t-46 -6t-42.5 21.5t-15.5 63t24 118.5t52 122t59 58t83.5 13q4 0 4 -4t-6 -10q-41 -36 -83.5 -129t-42.5 -157q0 -34 19 -34q36 0 92 72t86 144q4 10 11.5 29t10.5 26t9.5 19.5t11.5 17t13.5 11.5t17.5 9q29 6 54 6zM491 545
q-20 -5 -41.5 -27.5t-32.5 -22.5q-21 0 -21 17t24.5 52t45.5 35q11 0 21 -15t10 -26.5t-6 -12.5zM304 545q-20 -5 -41.5 -27.5t-32.5 -22.5q-21 0 -21 17t24.5 52t45.5 35q11 0 21 -15t10 -26.5t-6 -12.5z" />
    <glyph glyph-name="hbar" unicode="&#x127;" horiz-adv-x="438" 
d="M510 201q-123 -207 -208 -207q-59 0 -59 68q0 79 63 225q14 37 14 51q0 20 -18 20q-12 0 -40.5 -14t-54.5 -41t-43.5 -62.5t-28 -61.5t-21.5 -63.5t-19.5 -61t-17.5 -54.5h-97q27 69 77.5 220.5t86.5 238t70.5 146t79 99.5t94 40t49.5 -47q0 -33 -27 -87
q-58 -114 -194 -264q54 39 85.5 51t60.5 12q57 0 57 -50q0 -20 -7 -37t-15.5 -39t-14 -36t-14.5 -38t-14 -41q-13 -42 -13 -67t17 -25q60 0 150 174q3 7 7.5 7t4.5 -18.5t-10 -37.5zM389 719q-35 0 -91.5 -111t-110.5 -255q137 161 187 264q28 63 28 82.5t-13 19.5zM117 583
h369l2 -1q0 -6 -21.5 -22.5t-32.5 -16.5h-369q-1 0 -1 1q0 5 21 22t32 17z" />
    <glyph glyph-name="Itilde" unicode="&#x128;" horiz-adv-x="408" 
d="M217 698h226q-69 -53 -190 -328q-31 -70 -70.5 -183.5t-39.5 -165.5q0 -14 4 -21h-129q28 121 118 336q120 286 155 325q-85 -2 -172.5 -34.5t-101.5 -77.5q-1 -3 -4 -3q-9 0 -9 13q0 2 2 10q19 55 55 85t70.5 37t85.5 7zM522 828q-42 -72 -80 -72q-23 0 -65 18t-66.5 18
t-42.5 -15t-19 -15q-11 0 -11 9.5t26 38.5t50.5 29t70.5 -18.5t66.5 -18.5t32 10t18.5 20.5t13 10.5q9 0 9 -8q0 -3 -2 -7z" />
    <glyph glyph-name="itilde" unicode="&#x129;" horiz-adv-x="217" 
d="M186 400l50 -1h10q-16 -12 -42.5 -65t-39.5 -80t-29.5 -73t-16.5 -75t19 -29q13 0 36.5 17.5t38.5 37t33.5 49.5t32 52t15.5 22q6 0 6 -18.5t-10 -35.5q-37 -62 -67.5 -103.5t-69.5 -72.5t-71 -31q-56 0 -56 78q0 121 83 268q35 60 78 60zM378 578q-42 -72 -80 -72
q-23 0 -65 18t-66.5 18t-42.5 -15t-19 -15q-11 0 -11 9.5t26 38.5t50.5 29t70.5 -18.5t66.5 -18.5t32 10t18.5 20.5t13 10.5q9 0 9 -8q0 -3 -2 -7z" />
    <glyph glyph-name="dotlessi" unicode="&#x131;" horiz-adv-x="217" 
d="M186 400l50 -1h10q-16 -12 -42.5 -65t-39.5 -80t-29.5 -73t-16.5 -75t19 -29q13 0 36.5 17.5t38.5 37t33.5 49.5t32 52t15.5 22q6 0 6 -18.5t-10 -35.5q-37 -62 -67.5 -103.5t-69.5 -72.5t-71 -31q-56 0 -56 78q0 121 83 268q35 60 78 60z" />
    <glyph glyph-name="IJ" unicode="&#x132;" horiz-adv-x="752" 
d="M98 -50l-1 -6q0 -28 14.5 -41.5t35.5 -13.5q51 0 102.5 62.5t120 200.5t95.5 205t54 121t66 108t69 66q-69 -15 -123.5 -43t-65.5 -60q-1 -3 -4 -3q-9 0 -9 13q0 2 2 10q19 55 55 85t70.5 37t85.5 7h47l40 -1q-54 -18 -97 -82.5t-96 -215.5q-32 -108 -74.5 -212.5
t-64 -148t-54 -95.5t-63 -84t-69.5 -54t-82 -22t-71.5 26.5t-28.5 70.5q0 21 11 44t35 26zM217 698h226q-69 -53 -190 -328q-31 -70 -70.5 -183.5t-39.5 -165.5q0 -14 4 -21h-129q28 121 118 336q120 286 155 325q-85 -2 -172.5 -34.5t-101.5 -77.5q-1 -3 -4 -3q-9 0 -9 13
q0 2 2 10q19 55 55 85t70.5 37t85.5 7z" />
    <glyph glyph-name="ij" unicode="&#x133;" horiz-adv-x="432" 
d="M322 532h-4q-20 0 -38.5 -17t-26.5 -35q-26 10 -26 36t24 52.5t46 26.5t33 -10t11 -25.5t-19 -27.5zM186 400l50 -1h10q-16 -12 -42.5 -65t-39.5 -80t-29.5 -73t-16.5 -75t19 -29q13 0 36.5 17.5t38.5 37t33.5 49.5t32 52t15.5 22q6 0 6 -18.5t-10 -35.5
q-37 -62 -67.5 -103.5t-69.5 -72.5t-71 -31q-56 0 -56 78q0 121 83 268q35 60 78 60zM383 390h40q-22 -13 -35 -38.5t-20 -39t-18 -42.5l-16 -44q-20 -50 -35 -94t-20.5 -59t-20 -50t-24.5 -54t-28 -51t-34 -50t-39.5 -40.5t-46.5 -34.5q-57 -29 -106 -29q-101 0 -101 62
q0 25 15.5 47.5t42 22.5t35.5 -21q-10 -6 -15.5 -21t-5.5 -28.5t10.5 -23t28.5 -9.5q84 1 151 161q24 57 63 172q71 213 96 240q24 24 83 24zM499 532h-4q-20 0 -38.5 -17t-26.5 -35q-26 10 -26 36t24 52.5t46 26.5t33 -10t11 -25.5t-19 -27.5z" />
    <glyph glyph-name="Jcircumflex" unicode="&#x134;" horiz-adv-x="441" 
d="M-39 -3l-1 -6q0 -28 14.5 -41.5t35.5 -13.5q121 0 294 428q3 8 13.5 34t37.5 80t66.5 108.5t69.5 65.5q-29 8 -103 8t-165.5 -32t-106.5 -79q-2 -3 -4 -3q-9 0 -9 13q0 2 2 10q19 55 55 85t70.5 37t85.5 7h47l225 -1q-59 -45 -82 -69t-48 -73.5t-47 -110.5t-37 -108
t-27.5 -84t-34 -92t-42 -97t-49.5 -88t-59 -76q-67 -69 -143 -69q-47 0 -75.5 26.5t-28.5 70.5q0 21 11 44t35 26zM637 765v-1q0 -3 -14.5 -11t-22.5 -8q-14 0 -38.5 36t-36.5 63q-33 -32 -73.5 -63.5t-56.5 -31.5t-16 3v1q96 78 146 130q8 9 16.5 9t24 -22.5t37.5 -56
t34 -48.5z" />
    <glyph glyph-name="jcircumflex" unicode="&#x135;" horiz-adv-x="215" 
d="M206 390h40q-22 -13 -35 -38.5t-20 -39t-18 -42.5l-17 -44q-19 -50 -34 -94t-20.5 -59t-20 -50t-24.5 -54t-28 -51t-34 -50t-39.5 -40.5t-47.5 -34.5q-56 -29 -105 -29q-101 0 -101 62q0 25 15.5 47.5t42 22.5t35.5 -21q-10 -6 -15.5 -21t-5.5 -28.5t10.5 -23t28.5 -9.5
q84 1 151 161q24 57 62 172q72 213 97 240q24 24 83 24zM345 505v-1q0 -3 -14.5 -11t-22.5 -8q-14 0 -38.5 36t-36.5 63q-33 -32 -73.5 -63.5t-56.5 -31.5t-16 3v1q96 78 146 130q8 9 16.5 9t24 -22.5t37.5 -56t34 -48.5z" />
    <glyph glyph-name="kcommaaccent" unicode="&#x137;" horiz-adv-x="411" 
d="M482 199q-35 -59 -71 -107q-77 -100 -152 -100q-41 0 -61.5 41t-20.5 91q0 100 30 100q47 0 87 21.5t40 56.5q0 28 -32 28q-69 0 -153 -150q-8 -15 -33.5 -69.5t-45 -82.5t-38.5 -28h-61q31 58 91.5 234.5t89.5 236.5q1 2 12.5 26t16 33t17.5 34t21 37t22 34.5t25 34.5
t26 28.5t28 24.5q34 20 62 20q55 0 55 -50q0 -70 -84.5 -185.5t-190.5 -218.5l-18 -50q48 62 109 108.5t112 46.5q29 0 45.5 -14t16.5 -38q0 -55 -48.5 -88.5t-111.5 -43.5q9 -104 29 -127q10 -11 25 -11t41 18t42.5 39.5t35 51.5t32 52t15.5 22q6 0 6 -19.5t-11 -36.5z
M384 717q-56 0 -196 -360q128 150 180 253q30 54 30 89q0 18 -14 18zM157 -64q-28 -65 -75.5 -131.5t-72.5 -66.5q-7 0 -14 4q61 91 77 196q1 13 43 13t42 -13v-2z" />
    <glyph glyph-name="kgreenlandic" unicode="&#x138;" horiz-adv-x="566" 
d="M573 432q-93 0 -235 -124q59 -194 226 -306q-24 -8 -116 -8q-43 0 -103 98.5t-72 171.5q-19 -14 -36.5 -39.5t-39 -94t-21.5 -96t4 -34.5h-129q107 339 165 468t98 185q16 22 52 22q13 0 37 -8t24 -25t-42 -85.5t-87 -146t-49 -118.5q45 45 132.5 105.5t141.5 60.5
q20 0 39 -6.5t19 -16.5q0 -3 -8 -3z" />
    <glyph glyph-name="Ldotaccent" unicode="&#x13f;" horiz-adv-x="570" 
d="M564 129q-28 -87 -82 -110q-29 -12 -54.5 -15.5t-65.5 -3.5h-303q-40 0 -40 56q0 143 239 574q18 29 19 31q-85 -2 -172.5 -34.5t-101.5 -77.5q-1 -3 -4 -3q-9 0 -9 13q0 2 8.5 27t31.5 52t52 40q49 20 121 20h227q-41 -31 -105.5 -147t-126 -254.5t-61.5 -197.5
q0 -65 71 -65q290 0 346 114q2 3 5 3q7 0 7 -10q0 -2 -2 -12zM450 323q-5 -5 -18 -21q-31 -40 -36 -40q-15 0 -35 15.5t-20 28.5q0 22 30.5 41t64.5 19q24 0 24 -22q0 -14 -10 -21z" />
    <glyph glyph-name="ldot" unicode="&#x140;" horiz-adv-x="400" 
d="M415 610q-36 -73 -110 -165.5t-133 -148.5l-16 -46q-37 -109 -37 -156q0 -26 17.5 -39.5t44.5 -13.5q81 0 159.5 57t130.5 154q5 9 8 9q6 0 6 -17.5t-12 -40.5q-51 -92 -151 -156t-203 -64q-49 0 -69 17t-20 58q0 84 68 274q5 16 23 67t31 79.5t35 75.5t42.5 75t45.5 57
q49 58 106 58t57 -52q0 -40 -23 -82zM394 719h-7q-61 0 -195 -366q137 161 187 264q28 63 28 82.5t-13 19.5zM378 323q-5 -5 -18 -21q-31 -40 -36 -40q-15 0 -35 15.5t-20 28.5q0 22 30.5 41t64.5 19q24 0 24 -22q0 -14 -10 -21z" />
    <glyph glyph-name="Lslash" unicode="&#x141;" horiz-adv-x="593" 
d="M584 129q-28 -87 -82 -110q-29 -12 -54.5 -15.5t-65.5 -3.5h-303q-40 0 -40 56q0 143 239 574q18 29 19 31q-85 -2 -172.5 -34.5t-101.5 -77.5q-1 -3 -4 -3q-9 0 -9 13q0 2 8.5 27t31.5 52t52 40q49 20 121 20h227q-41 -31 -105.5 -147t-126 -254.5t-61.5 -197.5
q0 -65 71 -65q290 0 346 114q2 3 5 3q7 0 7 -10q0 -2 -2 -12zM11 267h312v-1q0 -5 -10.5 -23t-15.5 -18h-312q-1 0 -1 3t11 21t16 18z" />
    <glyph glyph-name="lslash" unicode="&#x142;" horiz-adv-x="241" 
d="M-15 219l88 33q29 112 102 274q41 92 97.5 155t110.5 63t54 -47q0 -68 -92 -194t-178 -207l-4 -10l127 47q1 0 1 -6t-4.5 -21.5t-8.5 -16.5l-131 -49q-29 -95 -29 -146q0 -30 22 -30t52.5 25t44.5 43.5t33 49.5q45 74 47 74q6 0 6 -16q0 -40 -82 -148q-27 -36 -70.5 -67
t-81.5 -31q-56 0 -56 76q0 46 26 136l-86 -32q-1 0 -1 5.5t4 21.5t9 18zM389 719q-35 0 -91.5 -111t-110.5 -255q137 161 187 264q28 63 28 82.5t-13 19.5z" />
    <glyph glyph-name="Nacute" unicode="&#x143;" horiz-adv-x="703" 
d="M858 697q-40 -26 -112.5 -168t-129 -296.5t-56.5 -214.5q0 -13 2 -18h-63q-3 58 -20.5 101.5t-26.5 65t-31 71.5t-39 90q-52 121 -59 206q-66 -147 -130 -311t-64 -214q0 -7 1 -9h-92q57 146 163 385t129 284q-91 0 -177.5 -36t-101.5 -84q-1 -3 -4 -3q-8 0 -8 13
q0 2 8 27t30.5 52t52.5 40q49 20 121 20h169q-14 -23 -14 -56q0 -74 57 -208q52 -125 61.5 -159.5t12 -45.5t3.5 -26t2 -19q13 32 223 514q2 5 18.5 5t43.5 -3t31 -3zM728 810q-40 -17 -106 -50.5t-69 -33.5t-12.5 5t-9.5 7q9 5 65.5 46.5t74.5 54.5q4 2 12 2t27.5 -11
t19.5 -17q0 -2 -2 -3z" />
    <glyph glyph-name="nacute" unicode="&#x144;" horiz-adv-x="436" 
d="M508 201q-37 -62 -67.5 -103.5t-69.5 -72.5t-71 -31q-59 0 -59 65t75 261q4 9 4 19q0 21 -26.5 21t-52 -16.5t-46.5 -47t-38 -62t-31.5 -72.5t-23 -68.5t-17 -59t-9.5 -34.5h-97q0 21 88 241q36 103 36 144q0 10 -3 15h42q35 0 45 -7t10 -19t-11 -49q84 80 169 80
q57 0 57 -52q0 -17 -5 -34t-25 -68q-44 -112 -44 -150q0 -24 18 -24q13 0 36.5 18t39 37.5t34 49t31.5 51.5t15 22q6 0 6 -18.5t-10 -35.5zM448 578q-40 -17 -106 -50.5t-69 -33.5t-12.5 5t-9.5 7q9 5 65.5 46.5t74.5 54.5q4 2 12 2t27.5 -11t19.5 -17q0 -2 -2 -3z" />
    <glyph glyph-name="OE" unicode="&#x152;" horiz-adv-x="1118" 
d="M997 698l109 5q31 0 34.5 -12.5t3.5 -18.5q0 -35 -24.5 -88.5t-35 -53.5t-10.5 8l8 60q0 31 -25 49t-60 18t-52 -5t-27 -21q-73 -109 -133 -248h261l1 -1q0 -7 -14 -27.5t-23 -20.5h-247q-27 -66 -53 -148t-26 -108.5t16 -39t54 -12.5q289 0 346 114q2 3 5 3q8 0 8 -11
q0 -3 -8 -28.5t-28 -53t-49 -39.5t-54.5 -15.5t-65.5 -3.5h-302q-31 0 -31 48q0 18 7 57q-142 -137 -331 -137q-248 0 -248 219q0 99 41.5 194.5t109.5 167t161 115.5t194 44t162.5 -43t79.5 -117q30 67 50 100q2 10 1.5 25.5t2.5 20t14 4.5h178zM676 499q0 163 -146 163
q-106 0 -202.5 -73t-152 -183t-55.5 -220q0 -79 35 -128t111.5 -49t153.5 46t132 117.5t89.5 159t34.5 167.5z" />
    <glyph glyph-name="oe" unicode="&#x153;" horiz-adv-x="648" 
d="M721 202q-34 -54 -55 -83t-54 -63q-64 -66 -159 -66q-56 0 -88 24t-40 65l-1 4q-68 -91 -176 -91q-50 0 -81.5 30t-31.5 93t28.5 129.5t86 114.5t120.5 48q115 0 126 -102q81 96 186 96q85 0 85 -63q0 -46 -45.5 -89.5t-103 -68t-102.5 -27.5q-4 -19 -4 -40q0 -82 71 -82
q79 0 165 107q11 13 30 44q45 74 47 74q6 0 6 -18.5t-10 -35.5zM610 303q12 18 12 37q0 28 -29 28q-47 0 -100 -58.5t-70 -128.5q48 10 101.5 40t85.5 82zM183 30q71 0 141 146q30 62 30 123t-52 61q-40 0 -75 -41t-65.5 -103.5t-30.5 -124t52 -61.5z" />
    <glyph glyph-name="Racute" unicode="&#x154;" horiz-adv-x="666" 
d="M645 562q0 -59 -35 -104q-62 -82 -191 -106l-32 -6q50 -174 210 -344q-15 -3 -46 -3l-77 3q-40 0 -84.5 78.5t-70.5 160t-26 108.5q0 15 14 16q235 29 242 184q0 55 -32.5 85t-106.5 34q-78 -105 -173 -336q-94 -235 -94 -310q0 -15 4 -22h-129q28 121 118 336
q120 286 155 325q-85 -2 -172.5 -34.5t-101.5 -77.5q-1 -3 -4 -3q-9 0 -9 13q0 2 2 10q19 55 55 85t70.5 37t85.5 7h243q92 0 138.5 -38.5t46.5 -97.5zM626 810q-40 -17 -106 -50.5t-69 -33.5t-12.5 5t-9.5 7q9 5 65.5 46.5t74.5 54.5q4 2 12 2t27.5 -11t19.5 -17
q0 -2 -2 -3z" />
    <glyph glyph-name="Rcommaaccent" unicode="&#x156;" horiz-adv-x="666" 
d="M645 562q0 -59 -35 -104q-62 -82 -191 -106l-32 -6q50 -174 210 -344q-15 -3 -46 -3l-77 3q-40 0 -84.5 78.5t-70.5 160t-26 108.5q0 15 14 16q235 29 242 184q0 55 -32.5 85t-106.5 34q-78 -105 -173 -336q-94 -235 -94 -310q0 -15 4 -22h-129q28 121 118 336
q120 286 155 325q-85 -2 -172.5 -34.5t-101.5 -77.5q-1 -3 -4 -3q-9 0 -9 13q0 2 2 10q19 55 55 85t70.5 37t85.5 7h243q92 0 138.5 -38.5t46.5 -97.5z" />
    <glyph glyph-name="rcommaaccent" unicode="&#x157;" horiz-adv-x="336" 
d="M304 402l51 -1h10q-15 -11 -42.5 -65t-41 -81.5t-30 -74t-16.5 -75.5t20 -29q13 1 36.5 18.5t39 37t34 50t32 53t15.5 22.5q7 0 7 -18.5t-10 -35.5q-43 -71 -71 -109t-67.5 -69.5t-71.5 -31.5q-57 0 -57 84q0 57 22 129t65 139q-35 -28 -70 -28q-11 0 -23 5
q-71 -140 -76.5 -140t-5.5 16.5t12.5 46t27 56.5t15.5 30q-36 18 -36 58q0 20 12.5 36t34.5 16t36 -14q-2 -6 -2 -18q0 -27 19.5 -42.5t47.5 -15.5q8 0 12 1q35 50 71 50zM121 -71q-28 -65 -75.5 -131.5t-72.5 -66.5q-7 0 -14 4q61 91 77 196q1 13 43 13t42 -13v-2z" />
    <glyph glyph-name="Rcaron" unicode="&#x158;" horiz-adv-x="666" 
d="M645 562q0 -59 -35 -104q-62 -82 -191 -106l-32 -6q50 -174 210 -344q-15 -3 -46 -3l-77 3q-40 0 -84.5 78.5t-70.5 160t-26 108.5q0 15 14 16q235 29 242 184q0 55 -32.5 85t-106.5 34q-78 -105 -173 -336q-94 -235 -94 -310q0 -15 4 -22h-129q28 121 118 336
q120 286 155 325q-85 -2 -172.5 -34.5t-101.5 -77.5q-1 -3 -4 -3q-9 0 -9 13q0 2 2 10q19 55 55 85t70.5 37t85.5 7h243q92 0 138.5 -38.5t46.5 -97.5zM406 902q24 0 75 -99q101 95 128 95q18 0 18 -3v-1q-96 -78 -146 -130q-9 -10 -17.5 -10t-24 22.5t-37 56.5t-33.5 49
q0 4 14 12t23 8z" />
    <glyph glyph-name="rcaron" unicode="&#x159;" horiz-adv-x="362" 
d="M304 402l51 -1h10q-15 -11 -42.5 -65t-41 -81.5t-30 -74t-16.5 -75.5t20 -29q13 1 36.5 18.5t39 37t34 50t32 53t15.5 22.5q7 0 7 -18.5t-10 -35.5q-43 -71 -71 -109t-67.5 -69.5t-71.5 -31.5q-57 0 -57 84q0 57 22 129t65 139q-35 -28 -70 -28q-11 0 -23 5
q-71 -140 -76.5 -140t-5.5 16.5t12.5 46t27 56.5t15.5 30q-36 18 -36 58q0 20 12.5 36t34.5 16t36 -14q-2 -6 -2 -18q0 -27 19.5 -42.5t47.5 -15.5q8 0 12 1q35 50 71 50zM176 623q0 4 14 12t23 8q25 0 75 -99q101 95 128 95q18 0 18 -3v-1q-96 -78 -146 -130
q-9 -10 -17.5 -10t-24 22.5t-37 56.5t-33.5 49z" />
    <glyph glyph-name="Scaron" unicode="&#x160;" horiz-adv-x="544" 
d="M531 686q40 -30 40 -72.5t-28.5 -79t-79.5 -36.5t-51 43q0 4 2 16q27 0 47 21t20 46t-24 41t-58 16q-58 0 -96 -35t-38 -82q0 -25 18 -55t34.5 -47.5t54 -52t44.5 -41.5q76 -76 76 -165.5t-81 -156t-194 -66.5q-92 0 -148.5 30t-56.5 94q0 35 23 64t65.5 29t57.5 -30
q-35 -28 -35 -67.5t26.5 -61t69.5 -21.5q60 0 105.5 43t45.5 108.5t-86 156.5q-1 2 -35 37.5t-56.5 72.5t-22.5 88q0 87 68 140t160.5 53t132.5 -30zM363 929q0 4 14 12t25.5 8t34 -33.5t38.5 -65.5q101 95 128 95q18 0 18 -3v-1q-96 -78 -146 -130q-9 -10 -17.5 -10
t-24 22.5t-37 56.5t-33.5 49z" />
    <glyph glyph-name="scaron" unicode="&#x161;" horiz-adv-x="401" 
d="M461 203q-45 -76 -81 -119.5t-91 -72t-117.5 -28.5t-99 21t-36.5 60q0 24 14 44.5t38.5 20.5t31.5 -18q-19 -19 -19 -44q0 -50 56 -50q33 0 57.5 23t24.5 50.5t-12 48.5t-29 37l-34 32q-41 40 -41 90.5t39 84.5t105 34q42 0 71 -15t29 -46.5t-19 -54.5t-51.5 -23
t-32.5 30q0 7 23 21t23 29t-12.5 22.5t-35.5 7.5t-44.5 -16t-21.5 -42t22 -49t48 -39t48 -44.5t22 -60t-14.5 -56.5t-34.5 -40q34 14 68 51.5t55 74t37 65t20.5 28.5t4.5 -19.5t-11 -37.5zM216 606q0 4 14 12t23 8q25 0 75 -99q101 95 128 95q18 0 18 -3v-1
q-96 -78 -146 -130q-9 -10 -17.5 -10t-24 22.5t-37 56.5t-33.5 49z" />
    <glyph glyph-name="Ydieresis" unicode="&#x178;" horiz-adv-x="584" 
d="M552 799q-20 -5 -41.5 -27.5t-32.5 -22.5q-21 0 -21 17t24.5 52t45.5 35q11 0 21 -15t10 -26.5t-6 -12.5zM365 799q-20 -5 -41.5 -27.5t-32.5 -22.5q-21 0 -21 17t24.5 52t45.5 35q11 0 21 -15t10 -26.5t-6 -12.5zM668 698q-114 -81 -234 -228q-64 -78 -115.5 -180.5
t-69.5 -187.5t-18 -90.5t2 -11.5h-122q4 17 40 124t36 150.5t-25.5 126t-55 157.5t-47.5 101q-9 11 -35 26q0 4 7 8.5t16 4.5h107q20 0 27 -6t25 -62t80 -293q168 240 243 341q16 21 83 21q11 0 30 -0.5t26 -0.5z" />
    <glyph glyph-name="Zcaron" unicode="&#x17d;" horiz-adv-x="596" 
d="M149 69q0 -20 213 -20q129 0 169 22q22 12 35 32q2 4 6 4t4 -4q-11 -44 -36 -73.5t-45 -29.5h-476q-25 0 -25 19q0 11 11 40t27 47q294 335 431 505q15 19 15 27q0 11 -55 11l-63 -1h-50q-20 0 -40 -0.5t-30.5 -2t-27.5 -4t-27 -6.5t-22 -9q-24 -12 -36 -31q-3 -4 -7 -4
t-4 4q11 44 36.5 73.5t44.5 29.5h392l47 2q27 0 27 -10.5t-22 -35.5q-158 -171 -473 -553q-19 -23 -19 -32zM356 885q0 4 14 12t23 8q25 0 75 -99q101 95 128 95q18 0 18 -3v-1q-96 -78 -146 -130q-9 -10 -17.5 -10t-24 22.5t-37 56.5t-33.5 49z" />
    <glyph glyph-name="zcaron" unicode="&#x17e;" horiz-adv-x="426" 
d="M498 201q-57 -105 -114.5 -162.5t-104.5 -57.5q-26 0 -84 30t-70.5 30t-16.5 -3q-41 -49 -61.5 -49t-20.5 20t12.5 32.5t19 18.5t20 16t37.5 30q73 59 172 154l35 33l-20 3q-71 11 -96.5 11t-44 -5t-33.5 -20t-22.5 -26t-17.5 -27.5t-17 -29t-13.5 -23t-13.5 -21.5
q-13 -23 -18.5 -23t-4.5 18.5t14.5 39t34 62.5t34 68t38.5 46.5t57 20.5q14 0 52 -6l12 -2q83 -15 104 -15q34 0 64 34q6 7 16.5 7t31.5 -7q-78 -72 -325 -312q46 -37 103 -37h4q45 0 89 24t76 65q20 25 47 72t29 47q6 0 6 -18.5t-10 -37.5zM282 626q24 0 75 -99
q101 95 128 95q18 0 18 -3v-1q-96 -78 -146 -130q-9 -10 -17.5 -10t-24 22.5t-37 56.5t-33.5 49q0 4 14 12t23 8z" />
    <glyph glyph-name="florin" unicode="&#x192;" horiz-adv-x="299" 
d="M495 614q0 -20 -16.5 -43t-43.5 -23q-13 0 -22.5 7t-9.5 16.5t15 31t15 35.5t-9 24t-29 10t-42 -17.5t-43 -52.5q-30 -51 -65 -134h160q2 0 2 -5t-9.5 -18t-18.5 -13h-144q-20 -42 -95 -240.5t-125.5 -284.5t-98.5 -124t-116 -38t-98 25t-30 56.5t16.5 51.5t35.5 20
q39 0 39 -28q0 -6 -13.5 -26.5t-13.5 -34.5q0 -29 36 -29t83.5 33.5t82.5 103t71 159.5t74.5 196t60.5 160h-50q-6 0 -6 7.5t5.5 18t9.5 10.5h54q36 88 86 154q60 78 154 78q39 0 61 -12q37 -19 37 -74z" />
    <glyph glyph-name="circumflex" unicode="&#x2c6;" horiz-adv-x="531" 
d="M487 505v-1q0 -3 -14.5 -11t-22.5 -8q-14 0 -38.5 36t-36.5 63q-33 -32 -73.5 -63.5t-56.5 -31.5t-16 3v1q96 78 146 130q8 9 16.5 9t24 -22.5t37.5 -56t34 -48.5z" />
    <glyph glyph-name="caron" unicode="&#x2c7;" horiz-adv-x="531" 
d="M282 626q24 0 75 -99q101 95 128 95q18 0 18 -3v-1q-96 -78 -146 -130q-9 -10 -17.5 -10t-24 22.5t-37 56.5t-33.5 49q0 4 14 12t23 8z" />
    <glyph glyph-name="breve" unicode="&#x2d8;" horiz-adv-x="607" 
d="M564 698q-46 -96 -153 -96q-46 0 -83.5 26.5t-37.5 64.5q0 10 30 10t30 -4q0 -30 23 -47t53.5 -17t56.5 16t39 47q1 4 21.5 4t20.5 -4z" />
    <glyph glyph-name="dotaccent" unicode="&#x2d9;" horiz-adv-x="607" 
d="M484 665q-11 -2 -32.5 -23t-28.5 -34q-49 16 -49 41q0 18 21.5 35t49.5 17q41 0 41 -25q0 -3 -2 -11z" />
    <glyph glyph-name="ring" unicode="&#x2da;" horiz-adv-x="555" 
d="M539 611q-12 -37 -46 -63t-75.5 -26t-59.5 18.5t-18 47.5q0 44 36.5 80.5t93.5 36.5q36 0 55 -18.5t19 -46.5q0 -12 -5 -29zM483 681l-10 1q-32 0 -56 -30.5t-24 -62.5q0 -39 38 -39q33 0 57.5 30.5t24.5 63.5t-30 37z" />
    <glyph glyph-name="ogonek" unicode="&#x2db;" horiz-adv-x="670" 
d="M641 -185q-71 -115 -130 -115q-23 0 -39 20t-16 53q0 87 53.5 164t131.5 77q10 0 10 -5q0 -8 -10 -10q-51 -16 -83 -76.5t-32 -116.5q0 -24 8 -37.5t20 -13.5q26 0 76 69q11 15 14.5 15t3.5 -6.5t-7 -17.5z" />
    <glyph glyph-name="tilde" unicode="&#x2dc;" horiz-adv-x="514" 
d="M556 683q-42 -72 -80 -72q-23 0 -65 18t-66.5 18t-42.5 -15t-19 -15q-11 0 -11 9.5t26 38.5t50.5 29t70.5 -18.5t66.5 -18.5t32 10.5t18.5 20.5t13 10q9 0 9 -8q0 -3 -2 -7z" />
    <glyph glyph-name="hungarumlaut" unicode="&#x2dd;" horiz-adv-x="607" 
d="M531 711q-58 -112 -77 -170q-2 -3 -17 -3t-15 1.5t46 172.5q3 11 33 11t30 -10v-2zM406 711q-57 -108 -78 -170q-2 -3 -16.5 -3t-14.5 1.5t46 172.5q3 11 33 11t30 -10v-2z" />
    <glyph glyph-name="endash" unicode="&#x2013;" horiz-adv-x="781" 
d="M200 288h569q1 0 1 -5t-18.5 -32.5t-28.5 -27.5h-569q-1 0 -1 5t18.5 32.5t28.5 27.5z" />
    <glyph glyph-name="emdash" unicode="&#x2014;" horiz-adv-x="1263" 
d="M200 288h1051q1 0 1 -5t-18.5 -32.5t-28.5 -27.5h-1051q-1 0 -1 5t18.5 32.5t28.5 27.5z" />
    <glyph glyph-name="quoteleft" unicode="&#x2018;" horiz-adv-x="217" 
d="M73 476q-22 12 -22 42.5t15.5 59.5t30.5 51.5t41 47t47 24.5q3 0 11 -2q-14 -16 -43.5 -60t-30.5 -56h6q34 0 34 -34t-20.5 -56.5t-46.5 -22.5q-11 0 -22 6z" />
    <glyph glyph-name="quoteright" unicode="&#x2019;" horiz-adv-x="159" 
d="M209 701q22 -13 22 -43t-15.5 -59t-30.5 -51.5t-41 -47t-47 -24.5q-5 0 -11 2q14 16 43.5 60t30.5 56h-6q-34 0 -34 38q0 29 20.5 52t46.5 23q11 0 22 -6z" />
    <glyph glyph-name="quotesinglbase" unicode="&#x201a;" horiz-adv-x="282" 
d="M234 107q22 -13 22 -43t-15.5 -59t-30.5 -51.5t-41 -47t-47 -24.5q-5 0 -11 2q14 16 43.5 60t30.5 56h-6q-34 0 -34 38q0 29 20.5 52t46.5 23q11 0 22 -6z" />
    <glyph glyph-name="quotedblleft" unicode="&#x201c;" horiz-adv-x="373" 
d="M72 476q-22 12 -22 42.5t15.5 59.5t30.5 51.5t41 47t47 24.5q3 0 11 -2q-14 -16 -43.5 -60t-30.5 -56h6q34 0 34 -34t-20.5 -56.5t-46.5 -22.5q-12 0 -22 6zM229 476q-22 12 -22 42.5t15.5 59.5t30.5 51.5t41 47t47 24.5q3 0 11 -2q-14 -16 -43.5 -60t-30.5 -56h6
q34 0 34 -34t-20.5 -56.5t-46.5 -22.5q-11 0 -22 6z" />
    <glyph glyph-name="quotedblright" unicode="&#x201d;" horiz-adv-x="373" 
d="M184 701q22 -13 22 -43t-15.5 -59t-30.5 -51.5t-41 -47t-47 -24.5q-5 0 -11 2q14 16 43.5 60t30.5 56h-6q-34 0 -34 38q0 29 20.5 52t46.5 23q12 0 22 -6zM338 701q22 -13 22 -43t-15.5 -59t-30.5 -51.5t-41 -47t-47 -24.5q-5 0 -11 2q14 16 43.5 60t30.5 56h-6
q-34 0 -34 38q0 29 20.5 52t46.5 23q12 0 22 -6z" />
    <glyph glyph-name="quotedblbase" unicode="&#x201e;" horiz-adv-x="441" 
d="M234 107q22 -13 22 -43t-15.5 -59t-30.5 -51.5t-41 -47t-47 -24.5q-5 0 -11 2q14 16 43.5 60t30.5 56h-6q-34 0 -34 38q0 29 20.5 52t46.5 23q11 0 22 -6zM388 107q22 -13 22 -43t-15.5 -59t-30.5 -51.5t-41 -47t-47 -24.5q-5 0 -11 2q14 16 43.5 60t30.5 56h-6
q-34 0 -34 38q0 29 20.5 52t46.5 23q12 0 22 -6z" />
    <glyph glyph-name="dagger" unicode="&#x2020;" horiz-adv-x="383" 
d="M219 515h148q1 0 1 -5t-18.5 -32.5t-28.5 -27.5h-111l-72 -508q0 -3 -18.5 -3t-34.5 2.5t-15 5.5l71 503h-139q-1 0 -1 5t19 32.5t28 27.5h103l26 184q0 3 17.5 3t34 -2.5t15.5 -5.5z" />
    <glyph glyph-name="daggerdbl" unicode="&#x2021;" horiz-adv-x="414" 
d="M146 -62l-11 1h-4q-25 0 -29.5 3.5t-4.5 4.5l48 340h-148q-1 0 -1 5t19 32.5t28 27.5h111l14 98h-139q-1 0 -1 5t19 32.5t28 27.5h103l26 184q2 3 34.5 3t32.5 -8l-26 -179h149q1 0 1 -5t-18.5 -32.5t-28.5 -27.5h-112l-14 -98h140q1 0 1 -5t-18.5 -32.5t-28.5 -27.5
h-103l-48 -345q-2 -4 -19 -4z" />
    <glyph glyph-name="bullet" unicode="&#x2022;" horiz-adv-x="511" 
d="M128 358q63 77 157 77q75 0 126 -53.5t51 -131.5t-62 -139.5t-139.5 -61.5t-128.5 53.5t-51 125t47 130.5z" />
    <glyph glyph-name="ellipsis" unicode="&#x2026;" horiz-adv-x="648" 
d="M222 49q-11 -2 -32.5 -23t-28.5 -34q-49 16 -49 41q0 18 21.5 35t49.5 17q41 0 41 -25q0 -3 -2 -11zM608 49q-11 -2 -32.5 -23t-28.5 -34q-49 16 -49 41q0 18 21.5 35t49.5 17q41 0 41 -25q0 -3 -2 -11zM415 49q-11 -2 -32.5 -23t-28.5 -34q-49 16 -49 41q0 18 21.5 35
t49.5 17q41 0 41 -25q0 -3 -2 -11z" />
    <glyph glyph-name="perthousand" unicode="&#x2030;" horiz-adv-x="901" 
d="M870 146q-15 -61 -56.5 -106t-93.5 -45t-75 31.5t-23 81.5q0 73 45 135.5t115 62.5q48 0 71 -31.5t23 -79.5q0 -25 -6 -49zM577 672q-31 -46 -85 -87l-332 -585q-2 -5 -29 -5t-27 4v1l328 575q-14 -4 -28 -4q-41 0 -66 25q1 -8 1 -26q0 -71 -44.5 -135.5t-116.5 -64.5
q-46 0 -69 31.5t-23 80.5q0 73 45 135.5t115 62.5q45 0 72.5 -34t61 -34t67.5 21.5t52 51.5q10 17 46 17t36 -20q0 -2 -4 -10zM586 146q-15 -61 -56.5 -106t-93.5 -45t-75 31.5t-23 81.5q0 73 45 135.5t115 62.5q48 0 71 -31.5t23 -79.5q0 -25 -6 -49zM783 74q23 25 34.5 60
t11.5 65q0 62 -42 62q-34 0 -63 -48t-29 -106t41 -58q24 0 47 25zM246.5 448q22.5 25 34.5 60.5t12 65.5q0 62 -42 62q-34 0 -63 -48t-29 -102q0 -29 11 -46t32.5 -17t44 25zM499 74q23 25 34.5 60t11.5 65q0 62 -42 62q-34 0 -63 -48t-29 -106t41 -58q24 0 47 25z" />
    <glyph glyph-name="guilsinglleft" unicode="&#x2039;" horiz-adv-x="432" 
d="M414 521q1 1 2.5 1t1.5 -3q0 -25 -91 -95t-179 -124q150 -106 190 -176q1 -2 1 -9t-18.5 -23t-24.5 -16t-6 1q-105 119 -201 188q-20 15 -20 23t25 23q165 93 320 210z" />
    <glyph glyph-name="guilsinglright" unicode="&#x203a;" horiz-adv-x="443" 
d="M454 333q20 -15 20 -22.5t-25 -22.5q-168 -94 -320 -211q-1 -1 -3 -1t-2 4q0 26 92.5 96t178.5 122q-148 105 -190 177q-1 1 -1 8t18 23t24 16t7 -1q105 -119 201 -188z" />
    <glyph glyph-name="Euro" unicode="&#x20ac;" horiz-adv-x="646" 
d="M630.5 584q33.5 -25 33.5 -62t-25 -63.5t-56 -26.5q-46 0 -46 35q0 3 2 13q21 0 36.5 16t15.5 36t-21 31.5t-47 11.5q-78 0 -147.5 -59t-110.5 -138h225q2 0 2 -5t-9.5 -18t-18.5 -13h-216l-9 -21q-10 -23 -17 -54h213q2 0 2 -5t-9.5 -18t-18.5 -13h-195q-4 -23 -4 -50
q0 -64 31 -103t93.5 -39t142 36.5t119.5 84.5q6 6 8 6t2 -6q0 -27 -13 -42q-54 -68 -138.5 -100.5t-178 -32.5t-142.5 47.5t-49 129.5q0 31 8 69h-71q-6 0 -6 7.5t5.5 18t9.5 10.5h72q8 30 30 75h-56q-6 0 -6 7.5t5.5 18t9.5 10.5h67l9 13q65 94 160.5 156t198.5 62
q76 0 109.5 -25z" />
    <glyph glyph-name="trademark" unicode="&#x2122;" horiz-adv-x="507" 
d="M471 488l12 4q1 0 1 -2q0 -5 -15.5 -10t-25.5 -5q-20 0 -20 22q0 40 63 158q-18 -15 -49.5 -53.5t-56.5 -67t-33 -28.5t-16 4q9 14 9 68.5t-4 82.5q-26 -39 -46 -87.5t-20 -71t8 -25.5h-16q-12 0 -12 17q0 43 62 162q19 36 22 36q25 0 30.5 -22t5.5 -69t-1 -59
q58 72 96.5 111t59.5 39h19q-22 -17 -53 -83.5t-31 -103.5q0 -17 11 -17zM253 692l34 2q10 0 11 -5v-4q0 -13 -8 -29t-10 -16q-4 0 -4 2l3 18q0 21 -42 21q-32 -38 -56 -95t-24 -81.5t8 -27.5h-30q-13 0 -13 22t30 93t48 89h-7q-41 0 -58 -17q-9 -8 -16 -16l-7 -7q-3 0 -3 4
q0 20 13 33.5t32 13.5h99z" />
    </font>
</defs>
</svg>
